<svg width="24" height="25" viewBox="0 0 24 25" fill="none" xmlns="http://www.w3.org/2000/svg">
<path d="M5.2225 24.288H18.8575C19.9774 24.2879 21.0513 23.8319 21.8432 23.0202C22.635 22.2086 23.0799 21.1078 23.08 19.9599V8.38C23.08 8.16252 22.9957 7.95395 22.8457 7.80017C22.6957 7.64639 22.4922 7.56 22.28 7.56H18.6V5.11312C18.5999 4.02228 18.1771 2.97613 17.4246 2.20479C16.6721 1.43345 15.6514 1.00008 14.5872 1H9.4928C8.42856 1.00008 7.40794 1.43345 6.65541 2.20479C5.90288 2.97613 5.48008 4.02228 5.48 5.11312V7.56H1.8C1.58783 7.56 1.38434 7.64639 1.23431 7.80017C1.08429 7.95395 1 8.16252 1 8.38V19.9599C1.00009 21.1078 1.44498 22.2086 2.23684 23.0202C3.02869 23.8319 4.10265 24.2879 5.2225 24.288ZM7.08 5.11312C7.08001 4.45721 7.33422 3.82817 7.7867 3.36437C8.23919 2.90057 8.85289 2.64001 9.4928 2.64H14.5872C15.2271 2.64001 15.8408 2.90057 16.2933 3.36437C16.7458 3.82817 17 4.45721 17 5.11312V7.56H7.08V5.11312ZM2.6 9.2H5.48V11.66C5.48 11.8775 5.56429 12.086 5.71431 12.2398C5.86434 12.3936 6.06783 12.48 6.28 12.48C6.49217 12.48 6.69566 12.3936 6.84569 12.2398C6.99572 12.086 7.08 11.8775 7.08 11.66V9.2H17V11.66C17 11.8775 17.0843 12.086 17.2343 12.2398C17.3843 12.3936 17.5878 12.48 17.8 12.48C18.0122 12.48 18.2157 12.3936 18.3657 12.2398C18.5157 12.086 18.6 11.8775 18.6 11.66V9.2H21.48V19.9599C21.48 20.6729 21.2037 21.3566 20.7119 21.8607C20.2201 22.3648 19.553 22.648 18.8575 22.648H5.2225C4.52697 22.648 3.85994 22.3648 3.36812 21.8607C2.87631 21.3566 2.60001 20.6729 2.6 19.9599V9.2Z" fill="#071A33" stroke="#F7F7F7" stroke-width="0.3"/>
</svg>
