<svg width="134" height="42" viewBox="0 0 134 42" fill="none" xmlns="http://www.w3.org/2000/svg">
<path d="M113.264 41.7845H20.7229C15.2217 41.7845 9.94574 39.5833 6.05578 35.6653C2.16582 31.7472 -0.0195312 26.4332 -0.0195312 20.8922C-0.0195312 15.3513 2.16582 10.0372 6.05578 6.11919C9.94574 2.20114 15.2217 0 20.7229 0L113.264 0C118.765 0 124.041 2.20114 127.931 6.11919C131.821 10.0372 134.006 15.3513 134.006 20.8922C134.006 26.4332 131.821 31.7472 127.931 35.6653C124.041 39.5833 118.765 41.7845 113.264 41.7845ZM20.7229 4.84895C16.6226 5.03378 12.751 6.80447 9.9144 9.79233C7.07776 12.7802 5.49462 16.755 5.49462 20.889C5.49462 25.0231 7.07776 28.9978 9.9144 31.9857C12.751 34.9736 16.6226 36.7442 20.7229 36.9291H113.264C117.378 36.7632 121.269 35.0004 124.121 32.0099C126.974 29.0193 128.567 25.033 128.567 20.8858C128.567 16.7386 126.974 12.7523 124.121 9.76175C121.269 6.77119 117.378 5.00838 113.264 4.84253L20.7229 4.84895Z" fill="#1A2741"/>
<path d="M23.8571 11.2393H15.0928V14.4505C15.0928 14.4505 15.8452 14.489 15.8452 16.0882V24.4053C15.8452 26.0109 15.0928 26.0462 15.0928 26.0462V29.2574H23.4809C28.9009 29.2574 28.9009 24.7617 28.9009 24.7617V15.523C28.9009 15.523 28.92 11.2393 23.8571 11.2393ZM23.4076 23.763C23.4076 25.5131 22.1036 25.4008 22.1036 25.4008H21.4277V15.0927H22.1036C22.1036 15.0927 23.4076 14.9803 23.4076 16.7337V23.763Z" fill="#1A2741"/>
<path d="M41.8603 19.8357V23.824H35.1651V25.0475C35.1651 25.0475 35.1364 26.0494 35.5062 26.332C35.6857 26.4489 35.895 26.5111 36.1088 26.5111C36.3226 26.5111 36.5318 26.4489 36.7113 26.332C37.0525 26.0333 37.0302 25.0475 37.0302 25.0475V24.5786H41.8603V27.8573C41.8603 27.8573 39.9155 29.5432 36.0992 29.5432C32.2829 29.5432 30.2871 28.4128 30.2871 24.9062V20.2306C30.2871 20.2306 30.2871 17.3855 32.0821 16.4639C33.877 15.5423 38.3086 15.629 39.9474 16.4639C41.8603 17.4272 41.8603 19.8228 41.8603 19.8228V19.8357ZM41.7104 12.9412H31.1192V14.3509H41.7104V12.9412ZM36.8867 19.2673C36.7952 19.1654 36.6836 19.0839 36.5589 19.0281C36.4342 18.9724 36.2994 18.9436 36.163 18.9436C36.0266 18.9436 35.8917 18.9724 35.767 19.0281C35.6424 19.0839 35.5307 19.1654 35.4392 19.2673C35.1459 19.7746 35.1746 20.7573 35.1746 20.7573H37.1513C37.1513 20.7573 37.18 19.7746 36.8867 19.2673Z" fill="#1A2741"/>
<path d="M50.6597 11.2393V14.4665C50.4492 14.5911 50.2778 14.7728 50.1651 14.9909C50.0523 15.2089 50.0027 15.4546 50.022 15.6996V25.4104H50.9785C50.9785 25.4104 51.9668 25.3686 51.9668 23.7084V20.4972H56.8479V29.2446H43.8369V26.0109C44.0474 25.8855 44.2187 25.7032 44.3314 25.4846C44.4441 25.2661 44.4937 25.0201 44.4746 24.7746V15.6996C44.4938 15.4546 44.4443 15.2089 44.3315 14.9909C44.2188 14.7728 44.0474 14.5911 43.8369 14.4665V11.2393H50.6597Z" fill="#1A2741"/>
<path d="M62.9661 20.2497C62.9661 19.7488 62.9661 18.9299 63.8684 18.9299C64.7706 18.9299 64.7706 19.7488 64.7706 20.2497V24.9702C64.7706 25.4712 64.7706 26.2933 63.8684 26.2933C62.9661 26.2933 62.9661 25.4712 62.9661 24.9702V20.2497ZM63.8684 15.8279C60.7949 15.8279 58.085 16.3609 58.085 20.542V24.8322C58.085 29.0067 60.7949 29.5462 63.8684 29.5462H63.9194C66.996 29.5462 69.7028 29.0132 69.7028 24.8322V20.5516C69.7028 16.377 66.996 15.8375 63.9194 15.8375L63.8684 15.8279Z" fill="#1A2741"/>
<path d="M77.0901 29.2447V26.2936C76.8796 26.1682 76.7083 25.9859 76.5956 25.7674C76.4829 25.5488 76.4333 25.3028 76.4524 25.0573V19.6496C78.1326 18.8628 78.2793 20.613 78.2793 20.613V25.0477C78.2793 28.3488 78.579 29.2608 78.579 29.2608H83.763V26.2936C83.6044 26.195 83.4716 26.0596 83.3756 25.8987C83.2797 25.7378 83.2234 25.5561 83.2114 25.3688V19.3092C83.2114 16.7081 81.4037 15.6516 79.5801 15.6516C78.4004 15.6981 77.2642 16.1121 76.3281 16.8366V15.9535H71.0293V19.0555C71.2397 19.1809 71.4111 19.3632 71.5238 19.5818C71.6365 19.8003 71.6861 20.0463 71.6669 20.2918V25.0477C71.6861 25.2932 71.6365 25.5392 71.5238 25.7577C71.4111 25.9763 71.2397 26.1586 71.0293 26.284V29.2351L77.0901 29.2447Z" fill="#1A2741"/>
<path d="M96.8479 29.3731C96.8479 34.6748 93.3408 34.6684 90.9625 34.6684C89.0308 34.6817 87.1331 34.1571 85.4787 33.1527V29.8644H89.9614C89.9614 30.5066 90.0921 31.3801 91.039 31.3801C91.9859 31.3801 91.9635 29.8836 91.9635 29.8836V28.5799C91.9635 28.5799 89.4736 30.2369 86.8178 28.9781C85.0994 28.1656 85.1025 25.7476 85.1025 25.7476V20.2885C85.1025 20.2885 85.1025 17.103 86.8497 16.2584C89.5533 14.9515 92.0879 16.8075 92.0879 16.8075V15.9534H97.3962V18.9815C97.3962 18.9815 96.8479 19.11 96.8479 20.0477V29.3731ZM91.9635 19.6109C89.9614 18.6476 89.9614 20.5165 89.9614 20.5165V23.8209C89.9614 26.7816 91.9635 25.5356 91.9635 25.5356V19.6109Z" fill="#1A2741"/>
<path d="M111.092 25.3686V19.3091C111.092 16.708 109.284 15.6515 107.464 15.6515C106.365 15.693 105.303 16.0568 104.406 16.6983V11.2393H98.9004V14.3413C99.1108 14.4667 99.2822 14.649 99.3949 14.8676C99.5076 15.0861 99.5572 15.3321 99.538 15.5776V25.0475C99.5572 25.293 99.5076 25.539 99.3949 25.7576C99.2822 25.9761 99.1108 26.1585 98.9004 26.2838V29.235H104.958V26.2935C104.748 26.1681 104.576 25.9858 104.463 25.7672C104.351 25.5487 104.301 25.3027 104.32 25.0572V19.6495C106.001 18.8627 106.147 20.6128 106.147 20.6128V25.0475C106.147 28.3487 106.447 29.2606 106.447 29.2606H111.631V26.2935C111.475 26.1934 111.344 26.0574 111.251 25.8966C111.157 25.7357 111.103 25.5548 111.092 25.3686Z" fill="#1A2741"/>
<path d="M118.281 15.9532V25.0474C118.262 25.2929 118.312 25.5389 118.424 25.7574C118.537 25.976 118.708 26.1583 118.919 26.2837V29.2348H112.861V26.2933C113.072 26.1679 113.243 25.9856 113.356 25.7671C113.469 25.5485 113.518 25.3025 113.499 25.057V20.2916C113.518 20.046 113.469 19.8 113.356 19.5815C113.243 19.3629 113.072 19.1806 112.861 19.0552V15.9532H118.281ZM115.712 10.979C114.223 10.979 113.014 11.9424 113.014 13.1048C113.014 14.2673 114.223 15.2275 115.712 15.2275C117.2 15.2275 118.412 14.2641 118.412 13.1048C118.412 11.9456 117.204 10.979 115.712 10.979Z" fill="#1A2741"/>
</svg>
