<svg width="32" height="32" viewBox="0 0 32 32" fill="none" xmlns="http://www.w3.org/2000/svg">
<path d="M25.2 11.1208H21.51C21.85 10.6039 22.05 9.99034 22.05 9.33333C22.05 7.49517 20.5025 6 18.6 6C17.565 6 16.6325 6.44444 16 7.14493C15.3675 6.44444 14.435 6 13.4 6C11.4975 6 9.95 7.49517 9.95 9.33333C9.95 9.99034 10.1475 10.6039 10.49 11.1208H6.8C6.3575 11.1208 6 11.4662 6 11.8937V16.7246C6 16.8309 6.09 16.9179 6.2 16.9179H7.2V25.2271C7.2 25.6546 7.5575 26 8 26H24C24.4425 26 24.8 25.6546 24.8 25.2271V16.9179H25.8C25.91 16.9179 26 16.8309 26 16.7246V11.8937C26 11.4662 25.6425 11.1208 25.2 11.1208ZM16.85 9.33333C16.85 8.40097 17.635 7.64251 18.6 7.64251C19.565 7.64251 20.35 8.40097 20.35 9.33333C20.35 10.2657 19.565 11.0242 18.6 11.0242H16.85V9.33333ZM13.4 7.64251C14.365 7.64251 15.15 8.40097 15.15 9.33333V11.0242H13.4C12.435 11.0242 11.65 10.2657 11.65 9.33333C11.65 8.40097 12.435 7.64251 13.4 7.64251ZM7.25 15.2754V12.25H15.1667L15.15 15.2754H7.25ZM8.5 16.9179H15.15L15.1667 24.75H8.5V16.9179ZM23.5 24.75H16.8333L16.85 16.9179H23.5V24.75ZM24.8 15.2754H16.85L16.8333 12.25H24.8V15.2754Z" fill="#C28005"/>
</svg>
