<svg width="22" height="18" viewBox="0 0 22 18" fill="none" xmlns="http://www.w3.org/2000/svg">
<path d="M0 1C0 1.55228 0.447715 2 1 2H21C21.5523 2 22 1.55228 22 1C22 0.447715 21.5523 0 21 0H1C0.447716 0 0 0.447715 0 1Z" fill="#071A33"/>
<path d="M11 9C11 9.55228 11.4477 10 12 10H21C21.5523 10 22 9.55228 22 9C22 8.44772 21.5523 8 21 8H12C11.4477 8 11 8.44772 11 9Z" fill="#071A33"/>
<path d="M0 17C0 17.5523 0.447715 18 1 18H21C21.5523 18 22 17.5523 22 17C22 16.4477 21.5523 16 21 16H1C0.447716 16 0 16.4477 0 17Z" fill="#071A33"/>
</svg>
