<svg width="32" height="32" viewBox="0 0 32 32" fill="none" xmlns="http://www.w3.org/2000/svg">
<path d="M20.2087 17.5035L19.6658 17.0632L19.413 17.7152C19.4081 17.7276 18.9223 18.9551 18.1765 18.7315C18.0114 18.682 17.9006 18.5865 17.8279 18.4309C17.6427 18.0343 17.7215 17.3165 18.0287 16.6021C18.4534 15.6144 18.2674 14.5793 17.4909 13.6089C16.9446 12.9264 16.2883 12.5131 16.2607 12.4959L15.4655 12L15.4833 12.9367C15.4835 12.9534 15.5006 14.6175 14.2679 15.2277C13.5126 15.6016 12.9719 16.22 12.7454 16.9689C12.5335 17.6696 12.6225 18.4356 12.9895 19.0707C13.1398 19.3305 13.1853 19.5511 13.1249 19.726C13.0386 19.9757 12.7597 20.1044 12.6762 20.1379C11.7949 20.4916 11.218 19.3105 11.1947 19.2619L10.7927 18.4041L10.3 19.2132C9.66737 20.2521 9.33301 21.4476 9.33301 22.6707C9.33301 26.3177 12.2804 29.2892 15.9195 29.3323C15.9462 29.3329 15.9729 29.3333 15.9995 29.3333H15.9997C19.6757 29.3333 22.6663 26.3444 22.6663 22.6707C22.6663 20.6589 21.7706 18.7755 20.2087 17.5035ZM13.9146 26.2333V26.2271C13.9097 25.8225 13.9867 25.3888 14.1442 24.9331L15.3974 25.2992L15.4099 24.6347C15.4293 23.6168 16.0035 22.992 16.4627 22.6539C16.5805 23.1659 16.7639 23.6224 17.0174 24.0364C17.3065 24.5077 17.5801 24.9073 17.8326 25.2684C17.9947 25.5009 18.0867 25.8519 18.0849 26.2313V26.2339C18.0849 26.7903 17.8679 27.3135 17.4741 27.7071C17.0806 28.1004 16.557 28.3171 15.9995 28.3171C15.9995 28.3171 15.9995 28.3171 15.9994 28.3171C14.8503 28.3169 13.915 27.3825 13.9146 26.2333ZM18.7979 27.5744C18.9965 27.1616 19.1015 26.7064 19.1017 26.2349C19.1043 25.6427 18.9498 25.0931 18.6663 24.6867C18.3849 24.2839 18.1441 23.9288 17.8846 23.5056C17.5953 23.0329 17.4211 22.476 17.3527 21.8028L17.2857 21.1448L16.6669 21.3789C16.6089 21.4009 16.0846 21.6076 15.5473 22.0948C14.9774 22.6113 14.6097 23.2503 14.4638 23.9676L13.555 23.7021L13.3755 24.1111C13.0508 24.8513 12.8901 25.5664 12.8978 26.2364C12.8983 26.716 13.0083 27.1704 13.2041 27.5759C11.5005 26.6024 10.3498 24.7683 10.3498 22.6705C10.3498 21.9075 10.5033 21.1571 10.798 20.4635C10.8432 20.5133 10.8912 20.5632 10.9422 20.6123C11.5649 21.2115 12.3153 21.3779 13.055 21.0809C13.5547 20.8804 13.9305 20.5075 14.0859 20.0577C14.1966 19.7375 14.249 19.218 13.8699 18.5623C13.6395 18.1636 13.5858 17.7021 13.7186 17.2629C13.863 16.7857 14.2183 16.3864 14.7191 16.1384C15.7731 15.6167 16.2039 14.6372 16.3797 13.8943C16.4906 14.0032 16.6045 14.1268 16.7117 14.2625C17.2341 14.9245 17.3629 15.5767 17.0945 16.2009C16.6653 17.1993 16.595 18.1936 16.9066 18.8608C17.1023 19.28 17.4405 19.5719 17.8843 19.7049C18.5821 19.9143 19.2645 19.6707 19.8058 19.0192C19.8906 18.9172 19.9654 18.8133 20.0306 18.7136C21.0662 19.7653 21.6495 21.1763 21.6495 22.6705C21.6495 24.7672 20.5001 26.6005 18.7979 27.5744Z" fill="#C28005"/>
<path d="M12.3944 3.98932H10.0691V10.6666H9.18373V3.98932H6.8584V3.19998H12.3944V3.98932ZM12.67 6.93332C12.67 5.68888 12.9331 4.73598 13.4593 4.07465C13.9856 3.40621 14.7357 3.07198 15.71 3.07198C16.2363 3.07198 16.6913 3.16442 17.0753 3.34932C17.4593 3.53421 17.7757 3.79732 18.0247 4.13865C18.2807 4.47288 18.4691 4.87821 18.59 5.35465C18.7109 5.82398 18.7713 6.35021 18.7713 6.93332C18.7713 8.17776 18.5047 9.13421 17.9713 9.80265C17.4451 10.464 16.6913 10.7946 15.71 10.7946C15.1909 10.7946 14.7393 10.7022 14.3553 10.5173C13.9784 10.3324 13.662 10.0729 13.406 9.73865C13.1571 9.39732 12.9722 8.99198 12.8513 8.52265C12.7304 8.04621 12.67 7.51642 12.67 6.93332ZM13.6087 6.93332C13.6087 7.34576 13.6477 7.73688 13.726 8.10665C13.8113 8.47642 13.9393 8.80354 14.11 9.08798C14.2807 9.36532 14.4976 9.58932 14.7607 9.75998C15.0309 9.92354 15.3473 10.0053 15.71 10.0053C16.3713 10.0053 16.8904 9.75642 17.2673 9.25865C17.6443 8.75376 17.8327 7.97865 17.8327 6.93332C17.8327 6.52798 17.79 6.14042 17.7047 5.77065C17.6264 5.39376 17.4984 5.06665 17.3207 4.78932C17.15 4.50488 16.9296 4.28088 16.6593 4.11732C16.3963 3.94665 16.0797 3.86132 15.71 3.86132C15.0557 3.86132 14.5403 4.11376 14.1633 4.61865C13.7936 5.11642 13.6087 5.88798 13.6087 6.93332ZM24.6016 3.98932H21.1563V10.6666H20.2709V3.19998H25.4869V10.6666H24.6016V3.98932Z" fill="#C28005"/>
<path d="M12.3942 3.98935V4.18935H12.5942V3.98935H12.3942ZM10.0689 3.98935V3.78935H9.86887V3.98935H10.0689ZM10.0689 10.6667V10.8667H10.2689V10.6667H10.0689ZM9.18354 10.6667H8.98354V10.8667H9.18354V10.6667ZM9.18354 3.98935H9.38354V3.78935H9.18354V3.98935ZM6.8582 3.98935H6.6582V4.18935H6.8582V3.98935ZM6.8582 3.20002V3.00002H6.6582V3.20002H6.8582ZM12.3942 3.20002H12.5942V3.00002H12.3942V3.20002ZM12.3942 3.78935H10.0689V4.18935H12.3942V3.78935ZM9.86887 3.98935V10.6667H10.2689V3.98935H9.86887ZM10.0689 10.4667H9.18354V10.8667H10.0689V10.4667ZM9.38354 10.6667V3.98935H8.98354V10.6667H9.38354ZM9.18354 3.78935H6.8582V4.18935H9.18354V3.78935ZM7.0582 3.98935V3.20002H6.6582V3.98935H7.0582ZM6.8582 3.40002H12.3942V3.00002H6.8582V3.40002ZM12.1942 3.20002V3.98935H12.5942V3.20002H12.1942ZM13.4591 4.07468L13.6157 4.19922L13.6162 4.19839L13.4591 4.07468ZM17.0751 3.34935L17.1619 3.16915L17.0751 3.34935ZM18.0245 4.13868L17.8629 4.25655L17.8657 4.2603L18.0245 4.13868ZM18.5898 5.35468L18.3959 5.40387L18.3961 5.40456L18.5898 5.35468ZM17.9711 9.80268L17.8147 9.67795L17.8146 9.67815L17.9711 9.80268ZM14.3551 10.5174L14.267 10.6969L14.2683 10.6975L14.3551 10.5174ZM13.4058 9.73868L13.2441 9.85655L13.247 9.8603L13.4058 9.73868ZM12.8511 8.52268L12.6573 8.57187L12.6574 8.57258L12.8511 8.52268ZM13.7258 8.10668L13.5301 8.14808L13.5309 8.15166L13.7258 8.10668ZM14.1098 9.08802L13.9383 9.19092L13.9394 9.19283L14.1098 9.08802ZM14.7605 9.76002L14.6515 9.9279L14.6569 9.93112L14.7605 9.76002ZM17.2671 9.25868L17.4266 9.37942L17.4274 9.37832L17.2671 9.25868ZM17.7045 5.77068L17.5086 5.81134L17.5095 5.81566L17.7045 5.77068ZM17.3205 4.78935L17.1489 4.8923L17.1521 4.89728L17.3205 4.78935ZM16.6591 4.11735L16.5502 4.28523L16.5555 4.28844L16.6591 4.11735ZM14.1631 4.61868L14.0029 4.49904L14.0026 4.49942L14.1631 4.61868ZM12.8698 6.93335C12.8698 5.71354 13.1282 4.81183 13.6157 4.19922L13.3026 3.95015C12.7376 4.6602 12.4698 5.66428 12.4698 6.93335H12.8698ZM13.6162 4.19839C14.0987 3.58551 14.7869 3.27202 15.7098 3.27202V2.87202C14.6843 2.87202 13.8719 3.22696 13.302 3.95098L13.6162 4.19839ZM15.7098 3.27202C16.2129 3.27202 16.637 3.36039 16.9883 3.52955L17.1619 3.16915C16.7453 2.96854 16.2591 2.87202 15.7098 2.87202V3.27202ZM16.9883 3.52955C17.3429 3.70027 17.6335 3.94207 17.8629 4.25652L18.1861 4.02084C17.9175 3.65263 17.5753 3.3682 17.1619 3.16915L16.9883 3.52955ZM17.8657 4.2603C18.1027 4.56971 18.2806 4.94935 18.3959 5.40387L18.7837 5.3055C18.6571 4.80714 18.4582 4.37611 18.1833 4.01707L17.8657 4.2603ZM18.3961 5.40456C18.5121 5.85471 18.5711 6.36378 18.5711 6.93335H18.9711C18.9711 6.3367 18.9093 5.79332 18.7834 5.30479L18.3961 5.40456ZM18.5711 6.93335C18.5711 8.15247 18.3095 9.05791 17.8147 9.67795L18.1274 9.92742C18.6994 9.21056 18.9711 8.20312 18.9711 6.93335H18.5711ZM17.8146 9.67815C17.3327 10.2838 16.6413 10.5947 15.7098 10.5947V10.9947C16.741 10.9947 17.5571 10.6442 18.1277 9.92722L17.8146 9.67815ZM15.7098 10.5947C15.2143 10.5947 14.7935 10.5065 14.4419 10.3372L14.2683 10.6975C14.6847 10.898 15.1671 10.9947 15.7098 10.9947V10.5947ZM14.4433 10.3378C14.0941 10.1665 13.8018 9.92686 13.5646 9.61707L13.247 9.8603C13.5217 10.219 13.8623 10.4984 14.267 10.6969L14.4433 10.3378ZM13.5674 9.62084C13.3354 9.30271 13.1603 8.92123 13.0448 8.47279L12.6574 8.57258C12.7837 9.0628 12.9784 9.49199 13.2442 9.85652L13.5674 9.62084ZM13.045 8.4735C12.9288 8.01578 12.8698 7.50286 12.8698 6.93335H12.4698C12.4698 7.53007 12.5316 8.0767 12.6573 8.57187L13.045 8.4735ZM13.4085 6.93335C13.4085 7.35846 13.4487 7.76352 13.5301 8.14807L13.9214 8.0653C13.8463 7.7103 13.8085 7.33314 13.8085 6.93335H13.4085ZM13.5309 8.15166C13.6203 8.53896 13.7554 8.88612 13.9383 9.19091L14.2813 8.98512C14.1229 8.72102 14.0019 8.41396 13.9206 8.06171L13.5309 8.15166ZM13.9394 9.19283C14.1251 9.49447 14.3626 9.74035 14.6517 9.9278L14.8693 9.59223C14.6321 9.43835 14.4358 9.23623 14.2801 8.9832L13.9394 9.19283ZM14.6569 9.93112C14.9627 10.1162 15.3161 10.2053 15.7098 10.2053V9.80535C15.3781 9.80535 15.0986 9.7309 14.8641 9.58891L14.6569 9.93112ZM15.7098 10.2053C16.4294 10.2053 17.0094 9.93047 17.4266 9.37942L17.1077 9.13795C16.7711 9.58246 16.3129 9.80535 15.7098 9.80535V10.2053ZM17.4274 9.37832C17.8422 8.8227 18.0325 7.9959 18.0325 6.93335H17.6325C17.6325 7.96147 17.4458 8.6849 17.1069 9.13904L17.4274 9.37832ZM18.0325 6.93335C18.0325 6.5139 17.9883 6.1112 17.8993 5.72571L17.5095 5.81566C17.5913 6.16972 17.6325 6.54212 17.6325 6.93335H18.0325ZM17.9003 5.73004C17.8179 5.33319 17.6818 4.98247 17.4889 4.68142L17.1521 4.89728C17.3146 5.1509 17.4346 5.45439 17.5086 5.81132L17.9003 5.73004ZM17.4919 4.68646C17.3054 4.37552 17.0622 4.12752 16.7627 3.94624L16.5555 4.28844C16.7965 4.43428 16.9942 4.63428 17.149 4.89224L17.4919 4.68646ZM16.7679 3.94956C16.467 3.75434 16.1111 3.66135 15.7098 3.66135V4.06135C16.0479 4.06135 16.325 4.13903 16.5503 4.28514L16.7679 3.94956ZM15.7098 3.66135C14.9953 3.66135 14.4191 3.94135 14.0029 4.49904L14.3234 4.73832C14.6609 4.28624 15.1158 4.06135 15.7098 4.06135V3.66135ZM14.0026 4.49942C13.5949 5.04824 13.4085 5.87171 13.4085 6.93335H13.8085C13.8085 5.90432 13.9918 5.18468 14.3237 4.73795L14.0026 4.49942ZM24.6014 3.98935H24.8014V3.78935H24.6014V3.98935ZM21.1561 3.98935V3.78935H20.9561V3.98935H21.1561ZM21.1561 10.6667V10.8667H21.3561V10.6667H21.1561ZM20.2707 10.6667H20.0707V10.8667H20.2707V10.6667ZM20.2707 3.20002V3.00002H20.0707V3.20002H20.2707ZM25.4867 3.20002H25.6867V3.00002H25.4867V3.20002ZM25.4867 10.6667V10.8667H25.6867V10.6667H25.4867ZM24.6014 10.6667H24.4014V10.8667H24.6014V10.6667ZM24.6014 3.78935H21.1561V4.18935H24.6014V3.78935ZM20.9561 3.98935V10.6667H21.3561V3.98935H20.9561ZM21.1561 10.4667H20.2707V10.8667H21.1561V10.4667ZM20.4707 10.6667V3.20002H20.0707V10.6667H20.4707ZM20.2707 3.40002H25.4867V3.00002H20.2707V3.40002ZM25.2867 3.20002V10.6667H25.6867V3.20002H25.2867ZM25.4867 10.4667H24.6014V10.8667H25.4867V10.4667ZM24.8014 10.6667V3.98935H24.4014V10.6667H24.8014Z" fill="#C28005"/>
</svg>
