<svg width="20" height="17" viewBox="0 0 20 17" fill="none" xmlns="http://www.w3.org/2000/svg">
<path fill-rule="evenodd" clip-rule="evenodd" d="M9.98546 4.63258L8.93232 3.59422C8.46785 3.13626 7.96689 2.71733 7.47052 2.42033C6.96486 2.11776 6.5614 2 6.26333 2C5.29161 2 4.32165 2.36103 3.59433 3.07814C2.14071 4.51137 2.13524 6.86352 3.57794 8.30365L9.9881 14.2124L16.433 8.30241C17.1472 7.58866 17.5 6.65018 17.5 5.71814C17.5 4.77847 17.1414 3.83224 16.4154 3.11637L16.404 3.10516L16.3929 3.09372C15.8212 2.50555 15.0657 2.22937 14.2504 2.22937C13.1299 2.22937 11.9333 2.71208 11.0386 3.59422L9.98546 4.63258ZM17.4685 9.38804L9.98546 16.25L2.5412 9.38804C0.486268 7.36195 0.486268 4.0361 2.5412 2.01001C3.56866 0.996966 4.92569 0.5 6.26333 0.5C7.60097 0.5 8.958 1.51305 9.98546 2.52609C11.1486 1.37925 12.7189 0.729369 14.2504 0.729369C15.4136 0.729369 16.5767 1.13076 17.4685 2.04824C18.496 3.06129 19 4.39927 19 5.71814C19 7.03701 18.496 8.375 17.4685 9.38804Z" fill="white" stroke="white" stroke-width="0.3"/>
</svg>
