<svg width="24" height="24" viewBox="0 0 24 24" fill="none" xmlns="http://www.w3.org/2000/svg">
<path d="M8.32011 0.800049C7.11717 0.799688 5.93169 1.08792 4.8632 1.64055C3.79471 2.19317 2.87438 2.99407 2.17948 3.976C1.48458 4.95793 1.03539 6.09224 0.869606 7.2837C0.703826 8.47517 0.826298 9.68902 1.22674 10.8234C1.62718 11.9577 2.29391 12.9794 3.17095 13.8027C4.048 14.6261 5.10976 15.227 6.26711 15.555C7.42446 15.8831 8.64362 15.9287 9.82224 15.688C11.0009 15.4474 12.1046 14.9275 13.0407 14.172L21.8344 22.9657C21.9087 23.04 21.9969 23.0989 22.094 23.1392C22.191 23.1794 22.295 23.2 22.4001 23.2C22.5052 23.2 22.6092 23.1794 22.7062 23.1392C22.8033 23.0989 22.8915 23.04 22.9658 22.9657C23.0401 22.8914 23.099 22.8032 23.1392 22.7062C23.1794 22.6091 23.2001 22.5051 23.2001 22.4C23.2001 22.295 23.1794 22.191 23.1392 22.0939C23.099 21.9968 23.0401 21.9086 22.9658 21.8343L14.1721 13.0406C15.0634 11.9363 15.624 10.6023 15.7891 9.19284C15.9541 7.78334 15.7169 6.35591 15.1048 5.07557C14.4927 3.79524 13.5307 2.71428 12.3301 1.95768C11.1295 1.20109 9.73924 0.799741 8.32011 0.800049ZM12.5061 12.5061C11.5377 13.4745 10.2634 14.0771 8.90043 14.2113C7.53747 14.3455 6.17013 14.003 5.0314 13.2421C3.89267 12.4811 3.05301 11.3489 2.65547 10.0383C2.25793 8.72775 2.32713 7.31986 2.85125 6.05456C3.37538 4.78926 4.32202 3.74484 5.52987 3.09925C6.73772 2.45366 8.13205 2.24684 9.4753 2.51404C10.8185 2.78124 12.0276 3.50592 12.8964 4.56461C13.7652 5.6233 14.2401 6.95049 14.2401 8.32005C14.2413 9.09765 14.0887 9.86781 13.7911 10.5862C13.4935 11.3046 13.0568 11.9571 12.5061 12.5061Z" fill="#071A33"/>
</svg>
