<svg width="23" height="23" viewBox="0 0 23 23" fill="none" xmlns="http://www.w3.org/2000/svg">
<path fill-rule="evenodd" clip-rule="evenodd" d="M9.8255 0.0803215C9.0177 0.259612 8.1119 0.661315 7.44361 1.13658C6.90487 1.51972 5.93622 2.55067 5.64148 3.05452C5.02479 4.10892 4.8494 4.81433 4.84915 6.24068C4.8489 7.50103 4.94684 7.98193 5.39872 8.93951C5.75705 9.69874 6.05123 10.1171 6.73362 10.8381L7.30818 11.4451L6.98833 11.7689C6.74185 12.0185 6.53986 12.1473 6.10728 12.3304C5.46597 12.602 4.47455 13.1821 3.88588 13.6303C3.29666 14.0789 2.36395 15.0475 1.92643 15.6651C1.24347 16.6292 0.665388 17.8999 0.364776 19.0979C0.0851363 20.2123 -0.0887723 22.0588 0.0471497 22.4706C0.189444 22.9019 0.658211 23.1057 1.06431 22.9131C1.42778 22.7406 1.51414 22.5243 1.55955 21.6728C1.73748 18.3358 3.12343 15.8479 5.70521 14.2308C7.03937 13.3951 8.60356 12.9609 10.5679 12.881C13.5062 12.7615 16.0101 13.6593 17.839 15.4881C19.4746 17.1238 20.2854 19.0766 20.4575 21.7946C20.5077 22.5865 20.5097 22.5946 20.7034 22.7677C21.0551 23.0818 21.3628 23.0776 21.7319 22.7536C22.0185 22.5019 22.048 22.3029 21.9597 21.217C21.73 18.3902 20.6978 16.0976 18.8496 14.3085C17.957 13.4446 16.5964 12.5397 15.7342 12.2367C15.5379 12.1677 15.1553 11.9996 14.8841 11.8633L14.3909 11.6153L15.1028 10.8881C16.527 9.4332 17.1024 8.20824 17.1708 6.48549C17.1964 5.84033 17.1802 5.5297 17.1003 5.13536C16.8516 3.90798 16.3501 2.95188 15.4695 2.0266C14.4201 0.92388 13.457 0.358414 12.157 0.081806C11.6474 -0.0265852 10.311 -0.027451 9.8255 0.0803215ZM11.8283 1.62811C13.6414 1.975 15.0929 3.36547 15.5241 5.16833C15.6946 5.88148 15.6645 6.97065 15.4558 7.63269C14.9262 9.31294 13.623 10.5132 11.9908 10.8237C11.4433 10.9279 10.384 10.9163 9.84839 10.8003C7.66497 10.3277 6.35791 8.61043 6.36199 6.21977C6.36428 4.88529 6.79283 3.78307 7.64214 2.92757C8.72005 1.84168 10.331 1.34167 11.8283 1.62811Z" fill="#071A33"/>
</svg>
