<svg width="32" height="32" viewBox="0 0 32 32" fill="none" xmlns="http://www.w3.org/2000/svg">
<path fill-rule="evenodd" clip-rule="evenodd" d="M7.40039 13C7.40039 8.25063 11.251 4.40002 16.0004 4.40002C20.7498 4.40002 24.6004 8.25063 24.6004 13V19C24.6004 23.7494 20.7498 27.6 16.0004 27.6C11.251 27.6 7.40039 23.7494 7.40039 19V13ZM16.0004 5.60003C11.9138 5.60003 8.60041 8.91337 8.60041 13V19C8.60041 23.0867 11.9138 26.4 16.0004 26.4C20.087 26.4 23.4004 23.0867 23.4004 19V13C23.4004 8.91337 20.087 5.60003 16.0004 5.60003Z" fill="#C28005"/>
<path fill-rule="evenodd" clip-rule="evenodd" d="M15.3741 8.52974C14.9808 8.21795 14.4013 8.49804 14.4013 8.99991V13.5652V14.5391L13.7168 13.8464L12.4281 12.5422L12.4281 12.5422C12.1952 12.3065 11.8153 12.3042 11.5796 12.5371L11.5796 12.5371C11.3439 12.77 11.3417 13.1499 11.5746 13.3856L11.5746 13.3856L13.8759 15.7146L14.1553 15.9974L13.8742 16.2786L11.5951 18.5577C11.3608 18.792 11.3608 19.1719 11.5951 19.4062C11.8294 19.6405 12.2093 19.6405 12.4436 19.4062L13.7185 18.1313L14.4013 17.4485V18.4141V22.9999C14.4013 23.5043 14.9858 23.7836 15.3782 23.4668L15.6294 23.778L15.3782 23.4668L20.3782 19.4308C20.7027 19.1689 20.6676 18.664 20.31 18.4495L20.31 18.4495L16.7605 16.3197L16.1923 15.9788L16.7587 15.6348L20.3127 13.4768L20.3128 13.4768C20.67 13.2598 20.7015 12.7533 20.3741 12.4937L20.3741 12.4937L15.3741 8.52974L15.3741 8.52974ZM16.2499 10.7554L15.6014 10.2413V11.0688V14.2228V14.9336L16.209 14.5647L18.4618 13.1968L18.953 12.8985L18.5027 12.5414L16.2499 10.7554ZM16.2072 17.3871L15.6014 17.0236V17.7301V20.9076V21.7445L16.2526 21.2188L18.5106 19.3962L18.9562 19.0365L18.4652 18.7419L16.2072 17.3871Z" fill="#C28005"/>
</svg>
