<svg width="73" height="75" viewBox="0 0 73 75" fill="none" xmlns="http://www.w3.org/2000/svg">
<path d="M0 33V0L73 74H40.3881L0 33Z" fill="#C28005"/>
<path d="M6.04133 24.6266L5.64253 24.2278L2.8933 26.977L2.18902 26.2727L8.12871 20.333L8.83299 21.0373L6.06679 23.8035L6.56742 24.0665L11.2089 23.4132L12.0235 24.2278L7.48383 24.7963L6.84744 24.7199L6.94077 25.4921L6.34681 30.4305L5.45585 29.5395L6.04133 24.6266ZM9.92607 28.0701C10.916 27.0801 11.8833 26.5314 12.828 26.4239C13.7784 26.3108 14.6411 26.6417 15.416 27.4167C15.8347 27.8353 16.1232 28.2709 16.2815 28.7234C16.4399 29.176 16.4824 29.637 16.4088 30.1065C16.3466 30.576 16.1741 31.0484 15.8912 31.5236C15.614 31.9931 15.2435 32.4598 14.7797 32.9236C13.7897 33.9136 12.8167 34.4623 11.8607 34.5698C10.916 34.6773 10.0533 34.3407 9.2727 33.56C8.85975 33.1471 8.57408 32.7143 8.41569 32.2618C8.26295 31.8149 8.2177 31.3567 8.27992 30.8872C8.35346 30.4177 8.52883 29.9481 8.80601 29.4786C9.08885 29.0034 9.46221 28.5339 9.92607 28.0701ZM10.6728 28.8168C10.3447 29.1449 10.0647 29.4871 9.83273 29.8435C9.60646 30.2055 9.44806 30.5676 9.35756 30.9296C9.2727 31.286 9.26705 31.6367 9.34058 31.9818C9.42544 32.3268 9.61211 32.6436 9.90061 32.9321C10.4267 33.4582 11.0376 33.6732 11.7334 33.577C12.4349 33.4752 13.2014 33.0085 14.0329 32.1769C14.3554 31.8545 14.6297 31.5123 14.856 31.1502C15.0936 30.7882 15.252 30.4261 15.3312 30.0641C15.4217 29.7021 15.4245 29.3485 15.3397 29.0034C15.2661 28.6584 15.0823 28.3388 14.7881 28.0446C14.2677 27.5242 13.6568 27.3149 12.9553 27.4167C12.2652 27.5185 11.5043 27.9852 10.6728 28.8168ZM21.3963 34.8564L19.6229 33.083C18.435 34.1578 17.4167 35.0233 16.5682 35.6795C15.731 36.3357 15.0097 36.7798 14.4044 37.0117C14.0085 37.1588 13.6634 37.2097 13.3692 37.1644C13.0751 37.1192 12.829 36.9975 12.631 36.7996C12.5292 36.6977 12.45 36.6016 12.3934 36.5111C12.3312 36.4262 12.2803 36.3357 12.2407 36.2395L12.945 35.7219C12.9846 35.7955 13.0355 35.8634 13.0977 35.9256C13.1939 36.0217 13.3183 36.084 13.4711 36.1123C13.6295 36.1462 13.8388 36.1236 14.099 36.0444C14.3309 35.9708 14.6081 35.8407 14.9305 35.654C15.2586 35.473 15.6433 35.2128 16.0845 34.8734C16.5314 34.5396 17.0405 34.121 17.6119 33.6176C18.1889 33.1085 18.8479 32.5004 19.5889 31.7932L22.7285 34.9328L16.7888 40.8725L16.0845 40.1682L21.3963 34.8564ZM26.6913 40.1514L24.9179 38.378C23.73 39.4528 22.7117 40.3183 21.8632 40.9745C21.026 41.6307 20.3047 42.0748 19.6995 42.3067C19.3035 42.4538 18.9584 42.5047 18.6643 42.4594C18.3701 42.4142 18.124 42.2926 17.926 42.0946C17.8242 41.9928 17.745 41.8966 17.6884 41.8061C17.6262 41.7212 17.5753 41.6307 17.5357 41.5345L18.24 41.0169C18.2796 41.0905 18.3305 41.1584 18.3927 41.2206C18.4889 41.3168 18.6133 41.379 18.7661 41.4073C18.9245 41.4412 19.1338 41.4186 19.394 41.3394C19.6259 41.2658 19.9031 41.1357 20.2255 40.9491C20.5536 40.768 20.9383 40.5078 21.3795 40.1684C21.8264 39.8347 22.3355 39.4161 22.9069 38.9126C23.4839 38.4035 24.1429 37.7954 24.884 37.0883L28.0235 40.2278L22.0838 46.1675L21.3795 45.4632L26.6913 40.1514ZM29.4662 41.6705L32.6991 44.9034L32.0712 45.5313L29.5426 43.0027L27.5995 44.9458L29.9159 47.2623L29.288 47.8902L26.9715 45.5737L24.8587 47.6866L27.4297 50.2576L26.8018 50.8855L23.5265 47.6102L29.4662 41.6705ZM31.9281 50.5133L31.5293 50.1145L28.78 52.8637L28.0758 52.1594L34.0155 46.2197L34.7197 46.924L31.9535 49.6902L32.4542 49.9533L37.0956 49.2999L37.9102 50.1145L33.3706 50.683L32.7342 50.6066L32.8275 51.3788L32.2335 56.3172L31.3426 55.4263L31.9281 50.5133ZM37.0307 63.3036L36.547 62.8199L37.5144 61.5981L33.2548 57.3384L39.1945 51.3988L39.8987 52.103L34.5869 57.4148L37.2598 60.0877L42.5716 54.7759L43.2759 55.4802L37.9641 60.792L38.7532 61.5811L37.0307 63.3036ZM46.7338 62.7735L47.4636 62.1456L47.4296 62.1116L46.369 62.4425L39.4959 63.5796L39.0801 63.1638L45.0198 57.2241L45.7241 57.9284L41.6511 62.0013L40.9214 62.6122L40.9554 62.6462L42.0245 62.3237L48.94 61.1443L49.3558 61.5601L43.4161 67.4998L42.7118 66.7955L46.7338 62.7735ZM48.2414 72.325L47.5371 71.6208L50.1251 69.0328L49.0644 68.3454L45.1867 69.2703L44.3551 68.4388L47.7916 67.6497L48.6741 67.8024C48.5157 67.5535 48.3941 67.2961 48.3092 67.0302C48.2357 66.7644 48.2046 66.4957 48.2159 66.2241C48.2385 65.9526 48.3092 65.6839 48.428 65.418C48.5525 65.1578 48.7392 64.9033 48.9881 64.6544C49.3331 64.3093 49.6754 64.0802 50.0148 63.967C50.3655 63.8539 50.7077 63.8285 51.0415 63.8907C51.3866 63.9529 51.7203 64.0887 52.0428 64.298C52.3765 64.5073 52.6933 64.7618 52.9931 65.0616C53.1854 65.254 53.3806 65.4661 53.5786 65.698C53.7822 65.9356 53.9633 66.1845 54.1217 66.4447L48.2414 72.325ZM52.3482 65.6386C52.1616 65.452 51.9636 65.2936 51.7543 65.1635C51.5506 65.0277 51.3357 64.9372 51.1094 64.8919C50.8888 64.8523 50.6625 64.8693 50.4306 64.9429C50.1986 65.0164 49.9667 65.1691 49.7348 65.4011C49.5198 65.616 49.3727 65.8366 49.2935 66.0629C49.22 66.2948 49.1974 66.5268 49.2256 66.7587C49.2596 66.985 49.3388 67.2056 49.4632 67.4206C49.5933 67.6412 49.7574 67.8505 49.9554 68.0485L50.5324 68.6255L52.8828 66.275C52.8206 66.1789 52.7499 66.0855 52.6707 65.995C52.5971 65.8989 52.4897 65.7801 52.3482 65.6386Z" fill="white"/>
<path d="M6.04134 24.6266L6.28958 24.6561L6.30394 24.5356L6.21811 24.4498L6.04134 24.6266ZM5.64253 24.2278L5.8193 24.051L5.64253 23.8742L5.46575 24.051L5.64253 24.2278ZM2.8933 26.977L2.71652 27.1538L2.8933 27.3305L3.07007 27.1538L2.8933 26.977ZM2.18902 26.2727L2.01224 26.0959L1.83546 26.2727L2.01224 26.4495L2.18902 26.2727ZM8.12871 20.333L8.30549 20.1562L8.12871 19.9795L7.95194 20.1562L8.12871 20.333ZM8.83299 21.0373L9.00977 21.2141L9.18655 21.0373L9.00977 20.8605L8.83299 21.0373ZM6.06679 23.8035L5.89001 23.6267L5.64988 23.8668L5.95051 24.0248L6.06679 23.8035ZM6.56742 24.0665L6.45114 24.2878L6.52248 24.3253L6.60227 24.3141L6.56742 24.0665ZM11.2089 23.4132L11.3856 23.2364L11.2975 23.1482L11.174 23.1656L11.2089 23.4132ZM12.0235 24.2278L12.0545 24.4758L12.5616 24.4123L12.2002 24.051L12.0235 24.2278ZM7.48383 24.7963L7.45405 25.0445L7.48448 25.0481L7.5149 25.0443L7.48383 24.7963ZM6.84744 24.7199L6.87722 24.4717L6.56103 24.4337L6.59924 24.7499L6.84744 24.7199ZM6.94077 25.4921L7.18899 25.5219L7.19259 25.492L7.18897 25.4621L6.94077 25.4921ZM6.34681 30.4305L6.17003 30.6073L6.53362 30.9709L6.59502 30.4603L6.34681 30.4305ZM5.45585 29.5395L5.20761 29.51L5.19324 29.6305L5.27907 29.7163L5.45585 29.5395ZM6.21811 24.4498L5.8193 24.051L5.46575 24.4045L5.86456 24.8033L6.21811 24.4498ZM5.46575 24.051L2.71652 26.8002L3.07007 27.1538L5.8193 24.4045L5.46575 24.051ZM3.07007 26.8002L2.36579 26.0959L2.01224 26.4495L2.71652 27.1538L3.07007 26.8002ZM2.36579 26.4495L8.30549 20.5098L7.95194 20.1562L2.01224 26.0959L2.36579 26.4495ZM7.95194 20.5098L8.65622 21.2141L9.00977 20.8605L8.30549 20.1562L7.95194 20.5098ZM8.65622 20.8605L5.89001 23.6267L6.24357 23.9803L9.00977 21.2141L8.65622 20.8605ZM5.95051 24.0248L6.45114 24.2878L6.6837 23.8452L6.18307 23.5822L5.95051 24.0248ZM6.60227 24.3141L11.2437 23.6607L11.174 23.1656L6.53257 23.819L6.60227 24.3141ZM11.0321 23.5899L11.8467 24.4045L12.2002 24.051L11.3856 23.2364L11.0321 23.5899ZM11.9924 23.9797L7.45277 24.5482L7.5149 25.0443L12.0545 24.4758L11.9924 23.9797ZM7.51362 24.548L6.87722 24.4717L6.81765 24.9681L7.45405 25.0445L7.51362 24.548ZM6.59924 24.7499L6.69258 25.5221L7.18897 25.4621L7.09563 24.6899L6.59924 24.7499ZM6.69256 25.4622L6.09859 30.4006L6.59502 30.4603L7.18899 25.5219L6.69256 25.4622ZM6.52358 30.2537L5.63263 29.3628L5.27907 29.7163L6.17003 30.6073L6.52358 30.2537ZM5.70409 29.5691L6.28958 24.6561L5.79309 24.597L5.20761 29.51L5.70409 29.5691ZM12.828 26.4239L12.8563 26.6723L12.8576 26.6722L12.828 26.4239ZM16.2815 28.7234L16.5175 28.6408L16.2815 28.7234ZM16.4088 30.1065L16.1618 30.0678L16.161 30.0737L16.4088 30.1065ZM15.8912 31.5236L15.6764 31.3957L15.6759 31.3965L15.8912 31.5236ZM11.8607 34.5698L11.8328 34.3214L11.8325 34.3214L11.8607 34.5698ZM8.41569 32.2618L8.17912 32.3426L8.17972 32.3444L8.41569 32.2618ZM8.27992 30.8872L8.03287 30.8485L8.03209 30.8543L8.27992 30.8872ZM8.80601 29.4786L8.59119 29.3507L8.59073 29.3515L8.80601 29.4786ZM9.83273 29.8435L9.62316 29.7071L9.62073 29.711L9.83273 29.8435ZM9.35755 30.9296L9.115 30.869L9.11435 30.8717L9.35755 30.9296ZM9.34058 31.9818L9.09596 32.0339L9.09782 32.0415L9.34058 31.9818ZM11.7334 33.577L11.7677 33.8247L11.7693 33.8244L11.7334 33.577ZM14.856 31.1502L14.647 31.013L14.644 31.0177L14.856 31.1502ZM15.3312 30.0641L15.0886 30.0034L15.087 30.0107L15.3312 30.0641ZM15.3397 29.0034L15.0951 29.0556L15.0969 29.0631L15.3397 29.0034ZM12.9553 27.4167L12.9194 27.1693L12.9188 27.1694L12.9553 27.4167ZM10.1028 28.2468C11.071 27.2787 11.9889 26.771 12.8563 26.6723L12.7998 26.1755C11.7778 26.2918 10.761 26.8816 9.74929 27.8933L10.1028 28.2468ZM12.8576 26.6722C13.7202 26.5695 14.5096 26.8638 15.2393 27.5935L15.5928 27.2399C14.7725 26.4196 13.8366 26.0521 12.7985 26.1757L12.8576 26.6722ZM15.2393 27.5935C15.6374 27.9916 15.9022 28.3962 16.0456 28.806L16.5175 28.6408C16.3441 28.1455 16.0319 27.679 15.5928 27.2399L15.2393 27.5935ZM16.0456 28.806C16.1905 29.22 16.2289 29.6394 16.1618 30.0678L16.6558 30.1452C16.7358 29.6346 16.6894 29.1319 16.5175 28.6408L16.0456 28.806ZM16.161 30.0737C16.1039 30.5045 15.9448 30.9448 15.6764 31.3957L16.106 31.6514C16.4033 31.152 16.5893 30.6476 16.6567 30.1394L16.161 30.0737ZM15.6759 31.3965C15.4114 31.8447 15.0548 32.295 14.6029 32.7469L14.9564 33.1004C15.4323 32.6246 15.8167 32.1415 16.1065 31.6507L15.6759 31.3965ZM14.6029 32.7469C13.6353 33.7144 12.7119 34.2225 11.8328 34.3214L11.8886 34.8182C12.9216 34.7021 13.9441 34.1128 14.9564 33.1004L14.6029 32.7469ZM11.8325 34.3214C10.9762 34.4188 10.186 34.1198 9.44948 33.3833L9.09593 33.7368C9.92068 34.5616 10.8559 34.9357 11.889 34.8182L11.8325 34.3214ZM9.44948 33.3833C9.05739 32.9912 8.79523 32.5894 8.65165 32.1792L8.17972 32.3444C8.35293 32.8393 8.66211 33.303 9.09593 33.7368L9.44948 33.3833ZM8.65225 32.1809C8.51204 31.7707 8.47059 31.3514 8.52776 30.92L8.03209 30.8543C7.96481 31.362 8.01387 31.8591 8.17912 32.3426L8.65225 32.1809ZM8.52691 30.9259C8.5949 30.4918 8.75783 30.052 9.0213 29.6057L8.59073 29.3515C8.29982 29.8443 8.11203 30.3435 8.03294 30.8485L8.52691 30.9259ZM9.02084 29.6065C9.29132 29.1521 9.65101 28.6987 10.1028 28.2468L9.74929 27.8933C9.2734 28.3692 8.88639 28.8548 8.59119 29.3507L9.02084 29.6065ZM10.496 28.64C10.1567 28.9793 9.86543 29.3349 9.6232 29.7071L10.0423 29.9798C10.2639 29.6393 10.5326 29.3105 10.8496 28.9935L10.496 28.64ZM9.62073 29.711C9.38254 30.0921 9.21272 30.4782 9.11502 30.869L9.60009 30.9902C9.68341 30.657 9.83037 30.319 10.0447 29.976L9.62073 29.711ZM9.11435 30.8717C9.02124 31.2628 9.0145 31.6511 9.09608 32.0339L9.58509 31.9297C9.51959 31.6223 9.52416 31.3092 9.60076 30.9875L9.11435 30.8717ZM9.09782 32.0415C9.1951 32.4371 9.40794 32.793 9.72384 33.1089L10.0774 32.7554C9.81629 32.4943 9.65577 32.2166 9.58335 31.9221L9.09782 32.0415ZM9.72384 33.1089C10.3015 33.6865 10.9891 33.9323 11.7677 33.8247L11.6992 33.3294C11.0862 33.4141 10.5519 33.2299 10.0774 32.7554L9.72384 33.1089ZM11.7693 33.8244C12.5491 33.7112 13.3629 33.2005 14.2097 32.3537L13.8562 32.0002C13.0398 32.8165 12.3206 33.2391 11.6975 33.3296L11.7693 33.8244ZM14.2097 32.3537C14.5446 32.0188 14.8311 31.6619 15.068 31.2827L14.644 31.0177C14.4284 31.3627 14.1661 31.6902 13.8562 32.0002L14.2097 32.3537ZM15.065 31.2874C15.3166 30.904 15.4887 30.514 15.5754 30.1175L15.087 30.0107C15.0153 30.3383 14.8706 30.6723 14.647 31.0131L15.065 31.2874ZM15.5737 30.1247C15.6736 29.7253 15.6775 29.3303 15.5824 28.9437L15.0969 29.0631C15.1716 29.3667 15.1698 29.6789 15.0887 30.0035L15.5737 30.1247ZM15.5842 28.9513C15.4989 28.5511 15.287 28.1899 14.9649 27.8678L14.6114 28.2214C14.8776 28.4876 15.0334 28.7656 15.0952 29.0556L15.5842 28.9513ZM14.9649 27.8678C14.3912 27.2941 13.7024 27.0556 12.9194 27.1693L12.9912 27.6641C13.6112 27.5741 14.1442 27.7542 14.6114 28.2214L14.9649 27.8678ZM12.9188 27.1694C12.1501 27.2828 11.342 27.794 10.496 28.64L10.8496 28.9935C11.6667 28.1764 12.3803 27.7542 12.9918 27.664L12.9188 27.1694ZM21.3963 34.8564L21.5731 35.0332L21.7499 34.8564L21.5731 34.6797L21.3963 34.8564ZM19.6229 33.083L19.7997 32.9062L19.6315 32.7381L19.4552 32.8976L19.6229 33.083ZM16.5682 35.6795L16.4152 35.4817L16.414 35.4827L16.5682 35.6795ZM14.4044 37.0117L14.4915 37.2461L14.4939 37.2451L14.4044 37.0117ZM13.3692 37.1644L13.4073 36.9173L13.3692 37.1644ZM12.3934 36.5111L12.6054 36.3786L12.6005 36.3707L12.595 36.3632L12.3934 36.5111ZM12.2407 36.2395L12.0926 36.0381L11.9351 36.1539L12.0095 36.3347L12.2407 36.2395ZM12.945 35.7219L13.1651 35.6034L13.0287 35.3501L12.7969 35.5205L12.945 35.7219ZM13.4711 36.1123L13.5235 35.8677L13.5166 35.8664L13.4711 36.1123ZM14.099 36.0444L14.1718 36.2836L14.1745 36.2827L14.099 36.0444ZM14.9305 35.654L14.8097 35.4351L14.8053 35.4377L14.9305 35.654ZM16.0845 34.8734L15.9349 34.6731L15.9321 34.6752L16.0845 34.8734ZM17.6119 33.6176L17.7772 33.8051L17.7773 33.805L17.6119 33.6176ZM19.5889 31.7932L19.7657 31.6165L19.593 31.4438L19.4164 31.6124L19.5889 31.7932ZM22.7285 34.9328L22.9053 35.1096L23.0821 34.9328L22.9053 34.756L22.7285 34.9328ZM16.7888 40.8725L16.612 41.0493L16.7888 41.226L16.9656 41.0493L16.7888 40.8725ZM16.0845 40.1682L15.9078 39.9914L15.731 40.1682L15.9078 40.345L16.0845 40.1682ZM21.5731 34.6797L19.7997 32.9062L19.4461 33.2598L21.2195 35.0332L21.5731 34.6797ZM19.4552 32.8976C18.2699 33.97 17.2569 34.8309 16.4153 35.4817L16.7211 35.8773C17.5766 35.2157 18.6 34.3456 19.7906 33.2684L19.4552 32.8976ZM16.414 35.4827C15.5855 36.1321 14.8869 36.5591 14.315 36.7782L14.4939 37.2451C15.1326 37.0004 15.8764 36.5393 16.7224 35.8763L16.414 35.4827ZM14.3174 36.7773C13.9456 36.9154 13.6453 36.954 13.4073 36.9173L13.3312 37.4115C13.6815 37.4654 14.0714 37.4021 14.4915 37.246L14.3174 36.7773ZM13.4073 36.9173C13.1621 36.8796 12.9657 36.7807 12.8078 36.6228L12.4542 36.9763C12.6923 37.2144 12.988 37.3587 13.3312 37.4115L13.4073 36.9173ZM12.8078 36.6228C12.715 36.53 12.6492 36.4486 12.6054 36.3786L12.1814 36.6436C12.2508 36.7546 12.3434 36.8654 12.4542 36.9763L12.8078 36.6228ZM12.595 36.3632C12.5446 36.2945 12.5037 36.2216 12.4719 36.1443L12.0095 36.3347C12.0569 36.4498 12.1178 36.5579 12.1918 36.6589L12.595 36.3632ZM12.3887 36.441L13.093 35.9234L12.7969 35.5205L12.0926 36.0381L12.3887 36.441ZM12.7249 35.8405C12.7766 35.9365 12.8424 36.0238 12.9209 36.1024L13.2745 35.7488C13.2285 35.7029 13.1925 35.6544 13.1651 35.6034L12.7249 35.8405ZM12.9209 36.1024C13.0578 36.2392 13.2304 36.3219 13.4255 36.3581L13.5166 35.8664C13.4063 35.846 13.33 35.8043 13.2745 35.7488L12.9209 36.1024ZM13.4187 36.3567C13.6378 36.4037 13.8952 36.3677 14.1718 36.2835L14.0262 35.8052C13.7823 35.8794 13.6211 35.8887 13.5234 35.8678L13.4187 36.3567ZM14.1745 36.2827C14.4303 36.2016 14.725 36.0619 15.0558 35.8704L14.8053 35.4377C14.4912 35.6195 14.2315 35.7401 14.0234 35.8061L14.1745 36.2827ZM15.0513 35.8729C15.3944 35.6837 15.79 35.4154 16.237 35.0716L15.9321 34.6752C15.4966 35.0103 15.1229 35.2624 14.8098 35.4352L15.0513 35.8729ZM16.2341 35.0737C16.688 34.7348 17.2024 34.3116 17.7772 33.8051L17.4466 33.43C16.8786 33.9305 16.3749 34.3445 15.9349 34.6731L16.2341 35.0737ZM17.7773 33.805C18.3574 33.2932 19.0189 32.6828 19.7615 31.9741L19.4164 31.6124C18.6769 32.3179 18.0204 32.9237 17.4465 33.4301L17.7773 33.805ZM19.4122 31.97L22.5517 35.1096L22.9053 34.756L19.7657 31.6165L19.4122 31.97ZM22.5517 34.756L16.612 40.6957L16.9656 41.0493L22.9053 35.1096L22.5517 34.756ZM16.9656 40.6957L16.2613 39.9914L15.9078 40.345L16.612 41.0493L16.9656 40.6957ZM16.2613 40.345L21.5731 35.0332L21.2195 34.6797L15.9078 39.9914L16.2613 40.345ZM26.6913 40.1514L26.8681 40.3282L27.0449 40.1514L26.8681 39.9747L26.6913 40.1514ZM24.9179 38.378L25.0947 38.2012L24.9265 38.0331L24.7502 38.1926L24.9179 38.378ZM21.8632 40.9745L21.7103 40.7767L21.709 40.7778L21.8632 40.9745ZM19.6995 42.3067L19.7865 42.5411L19.7889 42.5402L19.6995 42.3067ZM18.6643 42.4594L18.7023 42.2123L18.6643 42.4594ZM17.6884 41.8061L17.9004 41.6736L17.8955 41.6657L17.89 41.6582L17.6884 41.8061ZM17.5357 41.5345L17.3877 41.3331L17.2301 41.4489L17.3045 41.6297L17.5357 41.5345ZM18.24 41.0169L18.4601 40.8984L18.3237 40.6451L18.0919 40.8155L18.24 41.0169ZM18.7661 41.4073L18.8185 41.1627L18.8116 41.1614L18.7661 41.4073ZM19.394 41.3394L19.4668 41.5786L19.4695 41.5777L19.394 41.3394ZM20.2255 40.9491L20.1047 40.7301L20.1003 40.7327L20.2255 40.9491ZM21.3795 40.1684L21.2299 39.9681L21.2271 39.9703L21.3795 40.1684ZM22.9069 38.9126L23.0722 39.1002L23.0723 39.1001L22.9069 38.9126ZM24.884 37.0883L25.0607 36.9115L24.8881 36.7388L24.7114 36.9074L24.884 37.0883ZM28.0235 40.2278L28.2003 40.4046L28.3771 40.2278L28.2003 40.051L28.0235 40.2278ZM22.0838 46.1675L21.907 46.3443L22.0838 46.5211L22.2606 46.3443L22.0838 46.1675ZM21.3795 45.4632L21.2028 45.2865L21.026 45.4632L21.2028 45.64L21.3795 45.4632ZM26.8681 39.9747L25.0947 38.2012L24.7411 38.5548L26.5146 40.3282L26.8681 39.9747ZM24.7502 38.1926C23.5649 39.265 22.5519 40.1259 21.7103 40.7768L22.0161 41.1723C22.8716 40.5107 23.895 39.6406 25.0856 38.5634L24.7502 38.1926ZM21.709 40.7778C20.8805 41.4271 20.1819 41.8541 19.61 42.0733L19.7889 42.5402C20.4276 42.2954 21.1714 41.8344 22.0174 41.1713L21.709 40.7778ZM19.6124 42.0723C19.2406 42.2105 18.9403 42.249 18.7023 42.2123L18.6262 42.7065C18.9765 42.7604 19.3664 42.6971 19.7865 42.5411L19.6124 42.0723ZM18.7023 42.2123C18.4572 42.1746 18.2608 42.0757 18.1028 41.9178L17.7493 42.2714C17.9873 42.5094 18.283 42.6537 18.6262 42.7065L18.7023 42.2123ZM18.1028 41.9178C18.0101 41.825 17.9442 41.7436 17.9004 41.6736L17.4764 41.9386C17.5458 42.0496 17.6384 42.1605 17.7493 42.2714L18.1028 41.9178ZM17.89 41.6582C17.8396 41.5895 17.7987 41.5166 17.7669 41.4394L17.3045 41.6297C17.3519 41.7448 17.4128 41.853 17.4868 41.9539L17.89 41.6582ZM17.6838 41.736L18.388 41.2184L18.0919 40.8155L17.3877 41.3331L17.6838 41.736ZM18.0199 41.1355C18.0716 41.2316 18.1374 41.3189 18.2159 41.3974L18.5695 41.0438C18.5236 40.9979 18.4876 40.9494 18.4601 40.8984L18.0199 41.1355ZM18.2159 41.3974C18.3528 41.5342 18.5254 41.6169 18.7206 41.6531L18.8116 41.1614C18.7013 41.141 18.625 41.0993 18.5695 41.0438L18.2159 41.3974ZM18.7137 41.6517C18.9328 41.6987 19.1903 41.6627 19.4668 41.5786L19.3212 41.1002C19.0773 41.1745 18.9161 41.1837 18.8185 41.1628L18.7137 41.6517ZM19.4695 41.5777C19.7254 41.4966 20.02 41.3569 20.3508 41.1654L20.1003 40.7327C19.7862 40.9145 19.5265 41.0351 19.3184 41.1011L19.4695 41.5777ZM20.3463 41.168C20.6894 40.9787 21.085 40.7104 21.532 40.3666L21.2271 39.9703C20.7916 40.3053 20.4179 40.5574 20.1048 40.7302L20.3463 41.168ZM21.5291 40.3687C21.983 40.0298 22.4975 39.6066 23.0722 39.1002L22.7416 38.725C22.1736 39.2255 21.6699 39.6395 21.2299 39.9681L21.5291 40.3687ZM23.0723 39.1001C23.6524 38.5882 24.3139 37.9778 25.0565 37.2691L24.7114 36.9074C23.972 37.6129 23.3154 38.2187 22.7415 38.7251L23.0723 39.1001ZM24.7072 37.265L27.8467 40.4046L28.2003 40.051L25.0607 36.9115L24.7072 37.265ZM27.8467 40.051L21.907 45.9907L22.2606 46.3443L28.2003 40.4046L27.8467 40.051ZM22.2606 45.9907L21.5563 45.2865L21.2028 45.64L21.907 46.3443L22.2606 45.9907ZM21.5563 45.64L26.8681 40.3282L26.5146 39.9747L21.2028 45.2865L21.5563 45.64ZM29.4662 41.6705L29.643 41.4937L29.4662 41.317L29.2894 41.4937L29.4662 41.6705ZM32.6991 44.9034L32.8759 45.0802L33.0527 44.9034L32.8759 44.7266L32.6991 44.9034ZM32.0712 45.5313L31.8944 45.7081L32.0712 45.8849L32.248 45.7081L32.0712 45.5313ZM29.5426 43.0027L29.7194 42.8259L29.5426 42.6491L29.3658 42.8259L29.5426 43.0027ZM27.5995 44.9458L27.4227 44.7691L27.2459 44.9458L27.4227 45.1226L27.5995 44.9458ZM29.9159 47.2623L30.0927 47.4391L30.2695 47.2623L30.0927 47.0855L29.9159 47.2623ZM29.288 47.8902L29.1112 48.067L29.288 48.2438L29.4648 48.067L29.288 47.8902ZM26.9715 45.5737L27.1483 45.397L26.9715 45.2202L26.7948 45.397L26.9715 45.5737ZM24.8587 47.6866L24.6819 47.5098L24.5052 47.6866L24.6819 47.8633L24.8587 47.6866ZM27.4297 50.2576L27.6065 50.4344L27.7833 50.2576L27.6065 50.0808L27.4297 50.2576ZM26.8018 50.8855L26.6251 51.0623L26.8018 51.2391L26.9786 51.0623L26.8018 50.8855ZM23.5265 47.6102L23.3497 47.4334L23.173 47.6102L23.3497 47.787L23.5265 47.6102ZM29.2894 41.8473L32.5223 45.0802L32.8759 44.7266L29.643 41.4937L29.2894 41.8473ZM32.5223 44.7266L31.8944 45.3545L32.248 45.7081L32.8759 45.0802L32.5223 44.7266ZM32.248 45.3545L29.7194 42.8259L29.3658 43.1795L31.8944 45.7081L32.248 45.3545ZM29.3658 42.8259L27.4227 44.7691L27.7762 45.1226L29.7194 43.1795L29.3658 42.8259ZM27.4227 45.1226L29.7392 47.4391L30.0927 47.0855L27.7762 44.7691L27.4227 45.1226ZM29.7392 47.0855L29.1112 47.7134L29.4648 48.067L30.0927 47.4391L29.7392 47.0855ZM29.4648 47.7134L27.1483 45.397L26.7948 45.7505L29.1112 48.067L29.4648 47.7134ZM26.7948 45.397L24.6819 47.5098L25.0355 47.8633L27.1483 45.7505L26.7948 45.397ZM24.6819 47.8633L27.253 50.4344L27.6065 50.0808L25.0355 47.5098L24.6819 47.8633ZM27.253 50.0808L26.6251 50.7087L26.9786 51.0623L27.6065 50.4344L27.253 50.0808ZM26.9786 50.7087L23.7033 47.4334L23.3497 47.787L26.6251 51.0623L26.9786 50.7087ZM23.7033 47.787L29.643 41.8473L29.2894 41.4937L23.3497 47.4334L23.7033 47.787ZM31.9281 50.5133L32.1763 50.5429L32.1907 50.4224L32.1049 50.3365L31.9281 50.5133ZM31.5293 50.1145L31.706 49.9377L31.5293 49.7609L31.3525 49.9377L31.5293 50.1145ZM28.78 52.8637L28.6033 53.0405L28.78 53.2173L28.9568 53.0405L28.78 52.8637ZM28.0758 52.1594L27.899 51.9827L27.7222 52.1594L27.899 52.3362L28.0758 52.1594ZM34.0155 46.2197L34.1922 46.043L34.0155 45.8662L33.8387 46.043L34.0155 46.2197ZM34.7197 46.924L34.8965 47.1008L35.0733 46.924L34.8965 46.7472L34.7197 46.924ZM31.9535 49.6902L31.7767 49.5134L31.5366 49.7536L31.8372 49.9115L31.9535 49.6902ZM32.4542 49.9533L32.3379 50.1746L32.4092 50.2121L32.489 50.2008L32.4542 49.9533ZM37.0956 49.2999L37.2724 49.1231L37.1842 49.035L37.0608 49.0523L37.0956 49.2999ZM37.9102 50.1145L37.9413 50.3626L38.4483 50.2991L38.087 49.9377L37.9102 50.1145ZM33.3706 50.683L33.3408 50.9312L33.3712 50.9349L33.4016 50.9311L33.3706 50.683ZM32.7342 50.6066L32.764 50.3584L32.4478 50.3205L32.486 50.6366L32.7342 50.6066ZM32.8275 51.3788L33.0757 51.4087L33.0793 51.3787L33.0757 51.3488L32.8275 51.3788ZM32.2335 56.3172L32.0568 56.494L32.4204 56.8576L32.4818 56.3471L32.2335 56.3172ZM31.3426 55.4263L31.0943 55.3967L31.08 55.5172L31.1658 55.6031L31.3426 55.4263ZM32.1049 50.3365L31.706 49.9377L31.3525 50.2913L31.7513 50.6901L32.1049 50.3365ZM31.3525 49.9377L28.6033 52.6869L28.9568 53.0405L31.706 50.2913L31.3525 49.9377ZM28.9568 52.6869L28.2525 51.9827L27.899 52.3362L28.6033 53.0405L28.9568 52.6869ZM28.2525 52.3362L34.1922 46.3965L33.8387 46.043L27.899 51.9827L28.2525 52.3362ZM33.8387 46.3965L34.543 47.1008L34.8965 46.7472L34.1922 46.043L33.8387 46.3965ZM34.543 46.7472L31.7767 49.5134L32.1303 49.867L34.8965 47.1008L34.543 46.7472ZM31.8372 49.9115L32.3379 50.1746L32.5704 49.732L32.0698 49.4689L31.8372 49.9115ZM32.489 50.2008L37.1305 49.5475L37.0608 49.0523L32.4193 49.7057L32.489 50.2008ZM36.9188 49.4767L37.7334 50.2913L38.087 49.9377L37.2724 49.1231L36.9188 49.4767ZM37.8791 49.8664L33.3395 50.4349L33.4016 50.9311L37.9413 50.3626L37.8791 49.8664ZM33.4004 50.4348L32.764 50.3584L32.7044 50.8549L33.3408 50.9312L33.4004 50.4348ZM32.486 50.6366L32.5793 51.4088L33.0757 51.3488L32.9824 50.5766L32.486 50.6366ZM32.5793 51.3489L31.9853 56.2874L32.4818 56.3471L33.0757 51.4087L32.5793 51.3489ZM32.4103 56.1405L31.5194 55.2495L31.1658 55.6031L32.0568 56.494L32.4103 56.1405ZM31.5908 55.4559L32.1763 50.5429L31.6798 50.4837L31.0943 55.3967L31.5908 55.4559ZM37.0307 63.3036L36.8539 63.4804L37.0307 63.6572L37.2075 63.4804L37.0307 63.3036ZM36.547 62.8199L36.351 62.6648L36.2129 62.8393L36.3703 62.9967L36.547 62.8199ZM37.5144 61.5981L37.7104 61.7532L37.8486 61.5787L37.6911 61.4213L37.5144 61.5981ZM33.2548 57.3384L33.078 57.1617L32.9012 57.3384L33.078 57.5152L33.2548 57.3384ZM39.1945 51.3988L39.3712 51.222L39.1945 51.0452L39.0177 51.222L39.1945 51.3988ZM39.8987 52.103L40.0755 52.2798L40.2523 52.103L40.0755 51.9263L39.8987 52.103ZM34.5869 57.4148L34.4102 57.238L34.2334 57.4148L34.4102 57.5916L34.5869 57.4148ZM37.2598 60.0877L37.083 60.2645L37.2598 60.4412L37.4366 60.2645L37.2598 60.0877ZM42.5716 54.7759L42.7484 54.5991L42.5716 54.4223L42.3948 54.5991L42.5716 54.7759ZM43.2759 55.4802L43.4527 55.6569L43.6294 55.4802L43.4527 55.3034L43.2759 55.4802ZM37.9641 60.792L37.7873 60.6152L37.6105 60.792L37.7873 60.9687L37.9641 60.792ZM38.7532 61.5811L38.93 61.7579L39.1068 61.5811L38.93 61.4043L38.7532 61.5811ZM37.2075 63.1268L36.7238 62.6432L36.3703 62.9967L36.8539 63.4804L37.2075 63.1268ZM36.7431 62.9751L37.7104 61.7532L37.3184 61.4429L36.351 62.6648L36.7431 62.9751ZM37.6911 61.4213L33.4315 57.1617L33.078 57.5152L37.3376 61.7748L37.6911 61.4213ZM33.4315 57.5152L39.3712 51.5755L39.0177 51.222L33.078 57.1617L33.4315 57.5152ZM39.0177 51.5755L39.722 52.2798L40.0755 51.9263L39.3712 51.222L39.0177 51.5755ZM39.722 51.9263L34.4102 57.238L34.7637 57.5916L40.0755 52.2798L39.722 51.9263ZM34.4102 57.5916L37.083 60.2645L37.4366 59.9109L34.7637 57.238L34.4102 57.5916ZM37.4366 60.2645L42.7484 54.9527L42.3948 54.5991L37.083 59.9109L37.4366 60.2645ZM42.3948 54.9527L43.0991 55.6569L43.4527 55.3034L42.7484 54.5991L42.3948 54.9527ZM43.0991 55.3034L37.7873 60.6152L38.1409 60.9687L43.4527 55.6569L43.0991 55.3034ZM37.7873 60.9687L38.5764 61.7579L38.93 61.4043L38.1409 60.6152L37.7873 60.9687ZM38.5764 61.4043L36.8539 63.1268L37.2075 63.4804L38.93 61.7579L38.5764 61.4043ZM46.7338 62.7735L46.5708 62.584L46.5637 62.5901L46.557 62.5967L46.7338 62.7735ZM47.4636 62.1456L47.6266 62.3351L47.8309 62.1593L47.6403 61.9688L47.4636 62.1456ZM47.4296 62.1116L47.6064 61.9348L47.4995 61.8279L47.3552 61.873L47.4296 62.1116ZM46.369 62.4425L46.4098 62.6892L46.4269 62.6864L46.4434 62.6812L46.369 62.4425ZM39.4959 63.5796L39.3191 63.7563L39.4099 63.8472L39.5367 63.8262L39.4959 63.5796ZM39.0801 63.1638L38.9033 62.987L38.7266 63.1638L38.9033 63.3406L39.0801 63.1638ZM45.0198 57.2241L45.1966 57.0473L45.0198 56.8705L44.843 57.0473L45.0198 57.2241ZM45.7241 57.9284L45.9009 58.1051L46.0776 57.9284L45.9009 57.7516L45.7241 57.9284ZM41.6511 62.0013L41.8116 62.193L41.8201 62.1859L41.8279 62.1781L41.6511 62.0013ZM40.9214 62.6122L40.7609 62.4206L40.5515 62.5959L40.7446 62.789L40.9214 62.6122ZM40.9554 62.6462L40.7786 62.823L40.8843 62.9287L41.0275 62.8855L40.9554 62.6462ZM42.0245 62.3237L41.9825 62.0773L41.9672 62.0799L41.9523 62.0844L42.0245 62.3237ZM48.94 61.1443L49.1168 60.9675L49.0254 60.8761L48.898 60.8979L48.94 61.1443ZM49.3558 61.5601L49.5326 61.7369L49.7093 61.5601L49.5326 61.3833L49.3558 61.5601ZM43.4161 67.4998L43.2393 67.6765L43.4161 67.8533L43.5929 67.6765L43.4161 67.4998ZM42.7118 66.7955L42.535 66.6187L42.3582 66.7955L42.535 66.9723L42.7118 66.7955ZM46.8969 62.963L47.6266 62.3351L47.3005 61.9561L46.5708 62.584L46.8969 62.963ZM47.6403 61.9688L47.6064 61.9348L47.2528 62.2884L47.2868 62.3223L47.6403 61.9688ZM47.3552 61.873L46.2945 62.2039L46.4434 62.6812L47.5041 62.3503L47.3552 61.873ZM46.3282 62.1959L39.4551 63.3329L39.5367 63.8262L46.4098 62.6892L46.3282 62.1959ZM39.6727 63.4028L39.2569 62.987L38.9033 63.3406L39.3191 63.7563L39.6727 63.4028ZM39.2569 63.3406L45.1966 57.4009L44.843 57.0473L38.9033 62.987L39.2569 63.3406ZM44.843 57.4009L45.5473 58.1051L45.9009 57.7516L45.1966 57.0473L44.843 57.4009ZM45.5473 57.7516L41.4744 61.8245L41.8279 62.1781L45.9009 58.1051L45.5473 57.7516ZM41.4907 61.8096L40.7609 62.4206L41.0819 62.8039L41.8116 62.193L41.4907 61.8096ZM40.7446 62.789L40.7786 62.823L41.1321 62.4694L41.0982 62.4355L40.7446 62.789ZM41.0275 62.8855L42.0967 62.5631L41.9523 62.0844L40.8832 62.4068L41.0275 62.8855ZM42.0665 62.5702L48.982 61.3907L48.898 60.8979L41.9825 62.0773L42.0665 62.5702ZM48.7632 61.3211L49.179 61.7369L49.5326 61.3833L49.1168 60.9675L48.7632 61.3211ZM49.179 61.3833L43.2393 67.323L43.5929 67.6765L49.5326 61.7369L49.179 61.3833ZM43.5929 67.323L42.8886 66.6187L42.535 66.9723L43.2393 67.6765L43.5929 67.323ZM42.8886 66.9723L46.9106 62.9502L46.557 62.5967L42.535 66.6187L42.8886 66.9723ZM48.2414 72.325L48.0646 72.5018L48.2414 72.6786L48.4181 72.5018L48.2414 72.325ZM47.5371 71.6208L47.3603 71.444L47.1835 71.6208L47.3603 71.7975L47.5371 71.6208ZM50.1251 69.0328L50.3019 69.2095L50.5204 68.991L50.261 68.823L50.1251 69.0328ZM49.0644 68.3454L49.2004 68.1356L49.1105 68.0774L49.0064 68.1023L49.0644 68.3454ZM45.1867 69.2703L45.0099 69.4471L45.1087 69.5459L45.2447 69.5135L45.1867 69.2703ZM44.3551 68.4388L44.2991 68.1951L43.859 68.2962L44.1783 68.6156L44.3551 68.4388ZM47.7916 67.6497L47.8343 67.4033L47.7847 67.3947L47.7357 67.406L47.7916 67.6497ZM48.6741 67.8024L48.6315 68.0487L49.1886 68.1451L48.885 67.6682L48.6741 67.8024ZM48.3092 67.0302L48.0681 67.0969L48.0711 67.1062L48.3092 67.0302ZM48.2159 66.2241L47.9665 66.2033L47.9661 66.2137L48.2159 66.2241ZM48.428 65.418L48.2024 65.3101L48.1998 65.316L48.428 65.418ZM50.0148 63.967L49.938 63.7291L49.9357 63.7299L50.0148 63.967ZM51.0415 63.8907L50.9957 64.1364L50.9971 64.1367L51.0415 63.8907ZM52.0428 64.298L51.9066 64.5077L51.9099 64.5098L52.0428 64.298ZM53.5786 65.698L53.3885 65.8604L53.3888 65.8607L53.5786 65.698ZM54.1217 66.4447L54.2984 66.6215L54.4374 66.4826L54.3352 66.3148L54.1217 66.4447ZM51.7543 65.1635L51.6155 65.3716L51.6223 65.3758L51.7543 65.1635ZM51.1094 64.8919L51.1584 64.6467L51.1535 64.6459L51.1094 64.8919ZM49.2935 66.0629L49.0575 65.9803L49.0552 65.9873L49.2935 66.0629ZM49.2256 66.7587L48.9774 66.789L48.9784 66.7958L49.2256 66.7587ZM49.4632 67.4206L49.2469 67.5458L49.2479 67.5475L49.4632 67.4206ZM50.5324 68.6255L50.3556 68.8022L50.5324 68.979L50.7092 68.8022L50.5324 68.6255ZM52.8828 66.275L53.0596 66.4518L53.2025 66.3089L53.0927 66.1392L52.8828 66.275ZM52.6707 65.995L52.4721 66.1469L52.4771 66.1534L52.4825 66.1597L52.6707 65.995ZM48.4181 72.1483L47.7139 71.444L47.3603 71.7975L48.0646 72.5018L48.4181 72.1483ZM47.7139 71.7975L50.3019 69.2095L49.9483 68.856L47.3603 71.444L47.7139 71.7975ZM50.261 68.823L49.2004 68.1356L48.9285 68.5553L49.9891 69.2426L50.261 68.823ZM49.0064 68.1023L45.1287 69.0272L45.2447 69.5135L49.1224 68.5886L49.0064 68.1023ZM45.3634 69.0936L44.5319 68.262L44.1783 68.6156L45.0099 69.4471L45.3634 69.0936ZM44.411 68.6824L47.8476 67.8933L47.7357 67.406L44.2991 68.1951L44.411 68.6824ZM47.749 67.896L48.6315 68.0487L48.7167 67.5561L47.8343 67.4033L47.749 67.896ZM48.885 67.6682C48.7375 67.4364 48.6254 67.1985 48.5474 66.9542L48.0711 67.1062C48.1628 67.3937 48.2939 67.6706 48.4632 67.9366L48.885 67.6682ZM48.5502 66.9636C48.4835 66.7224 48.4555 66.4797 48.4657 66.2345L47.9661 66.2137C47.9537 66.5116 47.9879 66.8063 48.0683 67.0969L48.5502 66.9636ZM48.465 66.2449C48.4852 66.0033 48.5482 65.762 48.6563 65.52L48.1998 65.316C48.0703 65.6058 47.9919 65.9019 47.9668 66.2034L48.465 66.2449ZM48.6536 65.5259C48.7634 65.2962 48.9317 65.0643 49.1648 64.8311L48.8113 64.4776C48.5466 64.7423 48.3415 65.0195 48.2025 65.3102L48.6536 65.5259ZM49.1648 64.8311C49.4919 64.504 49.8021 64.3014 50.0938 64.2042L49.9357 63.7299C49.5486 63.8589 49.1743 64.1145 48.8113 64.4776L49.1648 64.8311ZM50.0915 64.205C50.4062 64.1035 50.7062 64.0825 50.9957 64.1364L51.0873 63.6449C50.7093 63.5744 50.3249 63.6043 49.938 63.7291L50.0915 64.205ZM50.9971 64.1367C51.3065 64.1925 51.6094 64.3147 51.9066 64.5077L52.1789 64.0883C51.8313 63.8626 51.4667 63.7133 51.0859 63.6446L50.9971 64.1367ZM51.9099 64.5098C52.2266 64.7084 52.5288 64.9509 52.8163 65.2384L53.1699 64.8849C52.8578 64.5728 52.5264 64.3062 52.1756 64.0862L51.9099 64.5098ZM52.8163 65.2384C53.0035 65.4256 53.1942 65.6328 53.3885 65.8604L53.7687 65.5357C53.567 65.2994 53.3674 65.0824 53.1699 64.8849L52.8163 65.2384ZM53.3888 65.8607C53.5839 66.0884 53.7569 66.3264 53.9081 66.5747L54.3352 66.3148C54.1696 66.0427 53.9806 65.7829 53.7684 65.5353L53.3888 65.8607ZM53.9449 66.268L48.0646 72.1483L48.4181 72.5018L54.2984 66.6215L53.9449 66.268ZM52.525 65.4619C52.3258 65.2626 52.1129 65.092 51.8862 64.9511L51.6223 65.3758C51.8142 65.4951 51.9973 65.6413 52.1715 65.8154L52.525 65.4619ZM51.8929 64.9555C51.6638 64.8027 51.4186 64.6988 51.1584 64.6468L51.0604 65.1371C51.2527 65.1756 51.4374 65.2527 51.6156 65.3715L51.8929 64.9555ZM51.1535 64.6459C50.8896 64.5985 50.6222 64.6198 50.355 64.7045L50.5061 65.1812C50.7027 65.1188 50.8879 65.1062 51.0652 65.138L51.1535 64.6459ZM50.355 64.7045C50.0739 64.7937 49.8088 64.9734 49.558 65.2243L49.9115 65.5778C50.1246 65.3648 50.3233 65.2391 50.5061 65.1812L50.355 64.7045ZM49.558 65.2243C49.3234 65.4589 49.152 65.7104 49.0576 65.9803L49.5295 66.1455C49.5934 65.9629 49.7162 65.7731 49.9115 65.5778L49.558 65.2243ZM49.0552 65.9873C48.9713 66.252 48.9447 66.52 48.9775 66.789L49.4738 66.7284C49.45 66.5336 49.4687 66.3377 49.5318 66.1385L49.0552 65.9873ZM48.9784 66.7958C49.0174 67.0557 49.108 67.306 49.2469 67.5458L49.6796 67.2953C49.5695 67.1052 49.5018 66.9143 49.4729 66.7216L48.9784 66.7958ZM49.2479 67.5475C49.3897 67.7879 49.5671 68.0137 49.7786 68.2252L50.1322 67.8717C49.9477 67.6872 49.797 67.4944 49.6786 67.2936L49.2479 67.5475ZM49.7786 68.2252L50.3556 68.8022L50.7092 68.4487L50.1322 67.8717L49.7786 68.2252ZM50.7092 68.8022L53.0596 66.4518L52.706 66.0983L50.3556 68.4487L50.7092 68.8022ZM53.0927 66.1392C53.0236 66.0325 52.9456 65.9295 52.8588 65.8304L52.4825 66.1597C52.5542 66.2415 52.6176 66.3253 52.6729 66.4109L53.0927 66.1392ZM52.8693 65.8432C52.7861 65.7344 52.6699 65.6068 52.525 65.4619L52.1715 65.8154C52.3094 65.9534 52.4082 66.0633 52.4721 66.1469L52.8693 65.8432Z" fill="white"/>
</svg>
