<svg width="50" height="50" viewBox="0 0 50 50" fill="none" xmlns="http://www.w3.org/2000/svg">
<circle cx="25" cy="25" r="25" fill="#59AEE4"/>
<path d="M18.6461 35.5825H31.4289C32.4788 35.5824 33.4856 35.1549 34.228 34.394C34.9703 33.6331 35.3874 32.601 35.3875 31.5249V20.6688C35.3875 20.4649 35.3085 20.2693 35.1678 20.1252C35.0272 19.981 34.8364 19.9 34.6375 19.9H31.1875V17.6061C31.1874 16.5834 30.7911 15.6026 30.0856 14.8795C29.3801 14.1564 28.4232 13.7501 27.4255 13.75H22.6495C21.6518 13.7501 20.6949 14.1564 19.9894 14.8795C19.2839 15.6026 18.8876 16.5834 18.8875 17.6061V19.9H15.4375C15.2386 19.9 15.0478 19.981 14.9072 20.1252C14.7665 20.2693 14.6875 20.4649 14.6875 20.6688V31.5249C14.6876 32.601 15.1047 33.6331 15.847 34.394C16.5894 35.1549 17.5962 35.5824 18.6461 35.5825ZM20.3875 17.6061C20.3875 16.9911 20.6258 16.4014 21.05 15.9666C21.4742 15.5318 22.0496 15.2875 22.6495 15.2875H27.4255C28.0254 15.2875 28.6008 15.5318 29.025 15.9666C29.4492 16.4014 29.6875 16.9911 29.6875 17.6061V19.9H20.3875V17.6061ZM16.1875 21.4375H18.8875V23.7438C18.8875 23.9476 18.9665 24.1432 19.1072 24.2873C19.2478 24.4315 19.4386 24.5125 19.6375 24.5125C19.8364 24.5125 20.0272 24.4315 20.1678 24.2873C20.3085 24.1432 20.3875 23.9476 20.3875 23.7438V21.4375H29.6875V23.7438C29.6875 23.9476 29.7665 24.1432 29.9072 24.2873C30.0478 24.4315 30.2386 24.5125 30.4375 24.5125C30.6364 24.5125 30.8272 24.4315 30.9678 24.2873C31.1085 24.1432 31.1875 23.9476 31.1875 23.7438V21.4375H33.8875V31.5249C33.8875 32.1933 33.6285 32.8343 33.1674 33.3069C32.7063 33.7795 32.081 34.045 31.4289 34.045H18.6461C17.994 34.045 17.3687 33.7795 16.9076 33.3069C16.4465 32.8343 16.1875 32.1933 16.1875 31.5249V21.4375Z" fill="white"/>
</svg>
