<svg width="20" height="20" viewBox="0 0 20 20" fill="none" xmlns="http://www.w3.org/2000/svg">
<path fill-rule="evenodd" clip-rule="evenodd" d="M1.83504 0.0732177C1.40503 0.191437 1.07299 0.390153 0.727002 0.736333C0.149336 1.31438 -0.0409011 1.8377 0.00711068 2.71668C0.10785 4.56066 0.888994 7.22931 1.94497 9.33726C3.64853 12.7379 6.21407 15.4733 9.55417 17.4502C11.6882 18.7133 14.1928 19.5886 16.6564 19.9322C17.943 20.1117 18.5845 19.9492 19.2632 19.272C19.6158 18.9202 19.8489 18.5198 19.9457 18.1001C20.0262 17.7508 20.0113 14.3247 19.9279 14.0114C19.8077 13.5601 19.6166 13.2363 19.2625 12.8841C18.8068 12.431 18.4752 12.2737 17.7062 12.1457C16.9225 12.0153 16.2797 11.8556 15.5884 11.6196C14.6467 11.298 14.0196 11.3091 13.3162 11.6595C13.0461 11.7941 12.8457 11.9544 12.3899 12.4004L11.8083 12.9696L11.3253 12.6481C11.0597 12.4712 10.6248 12.1548 10.3589 11.9449C9.75737 11.4701 8.45319 10.167 8.02256 9.61066C7.62503 9.09706 7.04151 8.24142 7.04151 8.17212C7.04151 8.14401 7.25832 7.90705 7.52329 7.64556C8.33916 6.8405 8.58622 6.34695 8.58375 5.52689C8.58255 5.1226 8.56131 5.01286 8.38446 4.49659C8.13344 3.76379 7.97521 3.13716 7.85085 2.38326C7.77488 1.92301 7.71062 1.69948 7.56764 1.39845C7.25818 0.746812 6.66546 0.256358 5.96781 0.0746466C5.58896 -0.0240443 2.19308 -0.0252351 1.83504 0.0732177ZM5.85126 1.31576C6.10718 1.43422 6.34419 1.66051 6.46937 1.90586C6.51943 2.00398 6.60426 2.34554 6.65784 2.66486C6.77806 3.38122 6.93596 4.0109 7.1844 4.76475C7.52915 5.81106 7.48538 5.94533 6.46046 6.98454C5.54971 7.90805 5.52756 7.95282 5.75414 8.41313C6.25279 9.42599 7.55444 11.0632 8.69892 12.1171C9.71955 13.0569 11.383 14.2376 11.8055 14.3221C12.0756 14.3761 12.1961 14.2949 12.9505 13.55C14.0186 12.4953 14.1915 12.4398 15.2816 12.8026C16.0141 13.0464 16.4511 13.1563 17.2868 13.3073C18.1733 13.4674 18.409 13.6025 18.6701 14.1004C18.7823 14.3144 18.7825 14.3174 18.7825 16.0771C18.7825 17.8305 18.7819 17.8406 18.6708 18.0643C18.5425 18.3222 18.2554 18.6002 18.0033 18.7104C17.7557 18.8186 17.2054 18.7985 16.3539 18.6501C13.2403 18.1072 10.403 16.8313 7.90939 14.8526C7.13482 14.238 5.76286 12.8668 5.15519 12.0999C3.14145 9.55884 1.88257 6.76239 1.34592 3.63814C1.2005 2.79146 1.18269 2.24218 1.29267 1.99607C1.38778 1.78321 1.57126 1.56111 1.76726 1.42155C2.05909 1.21374 2.24814 1.19545 3.99314 1.20621C5.54747 1.21578 5.64802 1.22169 5.85126 1.31576Z" fill="#071A33"/>
</svg>
