<svg width="32" height="32" viewBox="0 0 32 32" fill="none" xmlns="http://www.w3.org/2000/svg">
<path d="M18.7192 17.962C18.8994 17.7818 19.1916 17.7818 19.3717 17.962C19.552 18.1422 19.552 18.4343 19.3717 18.6145L13.2815 24.7048C13.1914 24.7949 13.0733 24.8399 12.9552 24.8399C12.8371 24.8399 12.719 24.7949 12.629 24.7048C12.4488 24.5246 12.4488 24.2324 12.629 24.0522L18.7192 17.962Z" fill="#C28005"/>
<path fill-rule="evenodd" clip-rule="evenodd" d="M14.1544 17.1807C13.2215 17.1807 12.4626 17.9396 12.4626 18.8725C12.4626 19.8054 13.2215 20.5643 14.1544 20.5643C15.0873 20.5643 15.8462 19.8054 15.8462 18.8725C15.8462 17.9396 15.0873 17.1807 14.1544 17.1807ZM14.1544 19.6415C13.7304 19.6415 13.3854 19.2965 13.3854 18.8725C13.3854 18.4484 13.7304 18.1035 14.1544 18.1035C14.5784 18.1035 14.9234 18.4484 14.9234 18.8725C14.9234 19.2965 14.5784 19.6415 14.1544 19.6415Z" fill="#C28005"/>
<path fill-rule="evenodd" clip-rule="evenodd" d="M16.154 23.7941C16.154 22.8612 16.9129 22.1022 17.8458 22.1022C18.7787 22.1022 19.5376 22.8612 19.5376 23.7941C19.5376 24.7269 18.7787 25.4859 17.8458 25.4859C16.9129 25.4859 16.154 24.7269 16.154 23.7941ZM17.0768 23.7941C17.0768 24.2181 17.4218 24.563 17.8458 24.563C18.2698 24.563 18.6148 24.2181 18.6148 23.7941C18.6148 23.37 18.2698 23.0251 17.8458 23.0251C17.4217 23.0251 17.0768 23.37 17.0768 23.7941Z" fill="#C28005"/>
<path fill-rule="evenodd" clip-rule="evenodd" d="M23.2286 21.1261C23.1615 21.2578 23.1615 21.4089 23.2286 21.5406L23.8505 22.7613C24.1967 23.4411 23.9224 24.2513 23.2259 24.6058L21.975 25.2427C21.8401 25.3114 21.7475 25.4336 21.7211 25.578L21.4764 26.9163C21.3402 27.6615 20.6222 28.1623 19.8413 28.0563L18.4391 27.866C18.2879 27.8456 18.1382 27.8922 18.0284 27.9941L17.0106 28.9388C16.7273 29.2018 16.3636 29.3333 16 29.3333C15.6364 29.3334 15.2728 29.2019 14.9894 28.9388L13.9717 27.9941C13.8618 27.8922 13.7121 27.8454 13.5609 27.866L12.1588 28.0563C12.0888 28.0658 12.0191 28.0704 11.9505 28.0704C11.2538 28.0705 10.6476 27.5947 10.5236 26.9164L10.2789 25.578C10.2525 25.4336 10.16 25.3114 10.025 25.2427L8.7741 24.6058C8.07761 24.2512 7.80326 23.4411 8.14952 22.7614L8.77143 21.5406C8.83852 21.409 8.83852 21.2579 8.77143 21.1262L8.14955 19.9054C7.80329 19.2257 8.07764 18.4155 8.77413 18.061L10.0251 17.4241C10.16 17.3554 10.2525 17.2332 10.2789 17.0888L10.5236 15.7505C10.6598 15.0053 11.3779 14.5045 12.1587 14.6105L13.5609 14.8008C13.7122 14.8213 13.8618 14.7747 13.9716 14.6727L14.9894 13.7279C15.5561 13.2018 16.4439 13.2018 17.0106 13.7279L18.0284 14.6726C18.1382 14.7745 18.2878 14.8212 18.4391 14.8007L19.8413 14.6104C20.6218 14.5044 21.3402 15.0052 21.4764 15.7504L21.7211 17.0888C21.7475 17.2331 21.84 17.3553 21.975 17.424L23.2259 18.0609C23.9224 18.4155 24.1967 19.2256 23.8505 19.9053L23.2286 21.1261ZM21.5242 24.4275L22.7751 23.7906C23.0108 23.6707 23.1036 23.3965 22.9864 23.1665L22.3645 21.9458C22.1663 21.5565 22.1663 21.1101 22.3645 20.7208L22.9864 19.5001C23.1036 19.2701 23.0108 18.996 22.7751 18.8761L21.5242 18.2392C21.1253 18.0362 20.8518 17.675 20.7738 17.2482L20.5291 15.9098C20.4831 15.6577 20.2399 15.4883 19.9759 15.5242L18.5738 15.7145C18.1267 15.7752 17.6842 15.6372 17.3596 15.3359L16.3419 14.3912C16.1501 14.2133 15.8497 14.2133 15.658 14.3912L14.6402 15.3359C14.3157 15.6371 13.8731 15.7752 13.4261 15.7145L12.024 15.5242C11.7597 15.4883 11.5168 15.6577 11.4707 15.9098L11.2261 17.2482C11.1481 17.6749 10.8745 18.0361 10.4757 18.2392L9.2248 18.8761C8.98914 18.996 8.89633 19.2701 9.01347 19.5001L9.63538 20.7209C9.83365 21.1101 9.83365 21.5566 9.63538 21.9458L9.01347 23.1666C8.89633 23.3965 8.98914 23.6706 9.2248 23.7906L10.4757 24.4275C10.8746 24.6305 11.1481 24.9917 11.2261 25.4184L11.4708 26.7568C11.5169 27.009 11.76 27.1783 12.024 27.1425L13.4262 26.9522C13.4954 26.9428 13.5645 26.9382 13.6331 26.9382C14.0075 26.9382 14.366 27.0761 14.6403 27.3307L15.6581 28.2755C15.8498 28.4534 16.1502 28.4534 16.3419 28.2755L17.3597 27.3308C17.6842 27.0295 18.1267 26.8915 18.5738 26.9522L19.976 27.1425C20.2402 27.1783 20.4831 27.009 20.5292 26.7569L20.7739 25.4185C20.8519 24.9918 21.1254 24.6306 21.5242 24.4275Z" fill="#C28005"/>
<path d="M18.7192 17.962C18.8994 17.7818 19.1916 17.7818 19.3717 17.962C19.552 18.1422 19.552 18.4343 19.3717 18.6145L13.2815 24.7048C13.1914 24.7949 13.0733 24.8399 12.9552 24.8399C12.8371 24.8399 12.719 24.7949 12.629 24.7048C12.4488 24.5246 12.4488 24.2324 12.629 24.0522L18.7192 17.962Z" stroke="#C28005" stroke-width="0.2"/>
<path fill-rule="evenodd" clip-rule="evenodd" d="M14.1544 17.1807C13.2215 17.1807 12.4626 17.9396 12.4626 18.8725C12.4626 19.8054 13.2215 20.5643 14.1544 20.5643C15.0873 20.5643 15.8462 19.8054 15.8462 18.8725C15.8462 17.9396 15.0873 17.1807 14.1544 17.1807ZM14.1544 19.6415C13.7304 19.6415 13.3854 19.2965 13.3854 18.8725C13.3854 18.4484 13.7304 18.1035 14.1544 18.1035C14.5784 18.1035 14.9234 18.4484 14.9234 18.8725C14.9234 19.2965 14.5784 19.6415 14.1544 19.6415Z" stroke="#C28005" stroke-width="0.2"/>
<path fill-rule="evenodd" clip-rule="evenodd" d="M16.154 23.7941C16.154 22.8612 16.9129 22.1022 17.8458 22.1022C18.7787 22.1022 19.5376 22.8612 19.5376 23.7941C19.5376 24.7269 18.7787 25.4859 17.8458 25.4859C16.9129 25.4859 16.154 24.7269 16.154 23.7941ZM17.0768 23.7941C17.0768 24.2181 17.4218 24.563 17.8458 24.563C18.2698 24.563 18.6148 24.2181 18.6148 23.7941C18.6148 23.37 18.2698 23.0251 17.8458 23.0251C17.4217 23.0251 17.0768 23.37 17.0768 23.7941Z" stroke="#C28005" stroke-width="0.2"/>
<path fill-rule="evenodd" clip-rule="evenodd" d="M23.2286 21.1261C23.1615 21.2578 23.1615 21.4089 23.2286 21.5406L23.8505 22.7613C24.1967 23.4411 23.9224 24.2513 23.2259 24.6058L21.975 25.2427C21.8401 25.3114 21.7475 25.4336 21.7211 25.578L21.4764 26.9163C21.3402 27.6615 20.6222 28.1623 19.8413 28.0563L18.4391 27.866C18.2879 27.8456 18.1382 27.8922 18.0284 27.9941L17.0106 28.9388C16.7273 29.2018 16.3636 29.3333 16 29.3333C15.6364 29.3334 15.2728 29.2019 14.9894 28.9388L13.9717 27.9941C13.8618 27.8922 13.7121 27.8454 13.5609 27.866L12.1588 28.0563C12.0888 28.0658 12.0191 28.0704 11.9505 28.0704C11.2538 28.0705 10.6476 27.5947 10.5236 26.9164L10.2789 25.578C10.2525 25.4336 10.16 25.3114 10.025 25.2427L8.7741 24.6058C8.07761 24.2512 7.80326 23.4411 8.14952 22.7614L8.77143 21.5406C8.83852 21.409 8.83852 21.2579 8.77143 21.1262L8.14955 19.9054C7.80329 19.2257 8.07764 18.4155 8.77413 18.061L10.0251 17.4241C10.16 17.3554 10.2525 17.2332 10.2789 17.0888L10.5236 15.7505C10.6598 15.0053 11.3779 14.5045 12.1587 14.6105L13.5609 14.8008C13.7122 14.8213 13.8618 14.7747 13.9716 14.6727L14.9894 13.7279C15.5561 13.2018 16.4439 13.2018 17.0106 13.7279L18.0284 14.6726C18.1382 14.7745 18.2878 14.8212 18.4391 14.8007L19.8413 14.6104C20.6218 14.5044 21.3402 15.0052 21.4764 15.7504L21.7211 17.0888C21.7475 17.2331 21.84 17.3553 21.975 17.424L23.2259 18.0609C23.9224 18.4155 24.1967 19.2256 23.8505 19.9053L23.2286 21.1261ZM21.5242 24.4275L22.7751 23.7906C23.0108 23.6707 23.1036 23.3965 22.9864 23.1665L22.3645 21.9458C22.1663 21.5565 22.1663 21.1101 22.3645 20.7208L22.9864 19.5001C23.1036 19.2701 23.0108 18.996 22.7751 18.8761L21.5242 18.2392C21.1253 18.0362 20.8518 17.675 20.7738 17.2482L20.5291 15.9098C20.4831 15.6577 20.2399 15.4883 19.9759 15.5242L18.5738 15.7145C18.1267 15.7752 17.6842 15.6372 17.3596 15.3359L16.3419 14.3912C16.1501 14.2133 15.8497 14.2133 15.658 14.3912L14.6402 15.3359C14.3157 15.6371 13.8731 15.7752 13.4261 15.7145L12.024 15.5242C11.7597 15.4883 11.5168 15.6577 11.4707 15.9098L11.2261 17.2482C11.1481 17.6749 10.8745 18.0361 10.4757 18.2392L9.2248 18.8761C8.98914 18.996 8.89633 19.2701 9.01347 19.5001L9.63538 20.7209C9.83365 21.1101 9.83365 21.5566 9.63538 21.9458L9.01347 23.1666C8.89633 23.3965 8.98914 23.6706 9.2248 23.7906L10.4757 24.4275C10.8746 24.6305 11.1481 24.9917 11.2261 25.4184L11.4708 26.7568C11.5169 27.009 11.76 27.1783 12.024 27.1425L13.4262 26.9522C13.4954 26.9428 13.5645 26.9382 13.6331 26.9382C14.0075 26.9382 14.366 27.0761 14.6403 27.3307L15.6581 28.2755C15.8498 28.4534 16.1502 28.4534 16.3419 28.2755L17.3597 27.3308C17.6842 27.0295 18.1267 26.8915 18.5738 26.9522L19.976 27.1425C20.2402 27.1783 20.4831 27.009 20.5292 26.7569L20.7739 25.4185C20.8519 24.9918 21.1254 24.6306 21.5242 24.4275Z" stroke="#C28005" stroke-width="0.2"/>
<path d="M5.4652 7.55H7.9752V8.7H5.4652V7.55ZM12.8787 5.71C12.8787 6.05 12.8154 6.39333 12.6887 6.74C12.5687 7.08667 12.412 7.42667 12.2187 7.76C12.032 8.09333 11.822 8.41667 11.5887 8.73C11.362 9.03667 11.1387 9.32 10.9187 9.58L10.3887 9.99V10.04L11.1087 9.9H13.0287V11H8.81871V10.33C8.97871 10.1633 9.15871 9.97 9.35871 9.75C9.55871 9.52333 9.75871 9.28667 9.95871 9.04C10.1654 8.78667 10.3654 8.52667 10.5587 8.26C10.752 7.99333 10.9254 7.72667 11.0787 7.46C11.232 7.18667 11.352 6.92333 11.4387 6.67C11.532 6.41667 11.5787 6.17667 11.5787 5.95C11.5787 5.67667 11.4987 5.45333 11.3387 5.28C11.1854 5.1 10.9387 5.01 10.5987 5.01C10.3854 5.01 10.1654 5.05667 9.93871 5.15C9.71871 5.23667 9.53205 5.35 9.37871 5.49L8.85871 4.57C9.11871 4.35667 9.41205 4.18667 9.73871 4.06C10.072 3.92667 10.462 3.86 10.9087 3.86C11.1954 3.86 11.4587 3.9 11.6987 3.98C11.9387 4.06 12.1454 4.17667 12.3187 4.33C12.492 4.48333 12.6287 4.67667 12.7287 4.91C12.8287 5.13667 12.8787 5.40333 12.8787 5.71ZM15.6025 9.99C16.0425 9.99 16.3792 9.88333 16.6125 9.67C16.8459 9.45667 16.9625 9.16333 16.9625 8.79C16.9625 8.39 16.8259 8.09667 16.5525 7.91C16.2792 7.72333 15.8892 7.63 15.3825 7.63L14.5925 7.66V4H18.0325V5.22H15.7125V6.57L16.1225 6.53C16.4492 6.54333 16.7425 6.60333 17.0025 6.71C17.2692 6.81667 17.4959 6.96667 17.6825 7.16C17.8692 7.34667 18.0125 7.57667 18.1125 7.85C18.2125 8.11667 18.2625 8.41667 18.2625 8.75C18.2625 9.14333 18.1959 9.49 18.0625 9.79C17.9292 10.09 17.7425 10.34 17.5025 10.54C17.2692 10.74 16.9925 10.89 16.6725 10.99C16.3525 11.09 16.0025 11.14 15.6225 11.14C15.3225 11.14 15.0359 11.1133 14.7625 11.06C14.4959 11.0133 14.2692 10.9467 14.0825 10.86L14.4325 9.78C14.5859 9.84667 14.7525 9.9 14.9325 9.94C15.1192 9.97333 15.3425 9.99 15.6025 9.99ZM19.1864 5.58C19.1864 5.28 19.2297 5.02333 19.3164 4.81C19.403 4.59667 19.523 4.42 19.6764 4.28C19.8297 4.14 20.013 4.04 20.2264 3.98C20.4464 3.91333 20.683 3.88 20.9364 3.88C21.1897 3.88 21.423 3.91 21.6364 3.97C21.8497 4.03 22.033 4.12667 22.1864 4.26C22.3464 4.39333 22.4697 4.57 22.5564 4.79C22.643 5.00333 22.6897 5.26667 22.6964 5.58C22.6897 5.89333 22.643 6.16 22.5564 6.38C22.4697 6.59333 22.3464 6.76667 22.1864 6.9C22.033 7.03333 21.8497 7.13 21.6364 7.19C21.423 7.25 21.1897 7.28 20.9364 7.28C20.683 7.28 20.4464 7.25 20.2264 7.19C20.013 7.13 19.8297 7.03333 19.6764 6.9C19.523 6.76667 19.403 6.59333 19.3164 6.38C19.2297 6.16 19.1864 5.89333 19.1864 5.58ZM20.3464 5.58C20.3464 6.15333 20.543 6.44 20.9364 6.44C21.143 6.44 21.2897 6.38 21.3764 6.26C21.4697 6.13333 21.5197 5.90667 21.5264 5.58C21.5197 5.26 21.4697 5.03667 21.3764 4.91C21.2897 4.78333 21.143 4.72 20.9364 4.72C20.7297 4.72 20.5797 4.78333 20.4864 4.91C20.393 5.03667 20.3464 5.26 20.3464 5.58ZM23.2464 9.29C23.2464 8.99 23.2897 8.73333 23.3764 8.52C23.463 8.30667 23.583 8.13 23.7364 7.99C23.8897 7.85 24.073 7.75 24.2864 7.69C24.5064 7.62333 24.743 7.59 24.9964 7.59C25.2497 7.59 25.483 7.62 25.6964 7.68C25.9097 7.74 26.093 7.83667 26.2464 7.97C26.4064 8.10333 26.5297 8.28 26.6164 8.5C26.703 8.71333 26.7497 8.97667 26.7564 9.29C26.7497 9.60333 26.703 9.87 26.6164 10.09C26.5297 10.3033 26.4064 10.4767 26.2464 10.61C26.093 10.7433 25.9097 10.84 25.6964 10.9C25.483 10.96 25.2497 10.99 24.9964 10.99C24.743 10.99 24.5064 10.96 24.2864 10.9C24.073 10.84 23.8897 10.7433 23.7364 10.61C23.583 10.4767 23.463 10.3033 23.3764 10.09C23.2897 9.87 23.2464 9.60333 23.2464 9.29ZM24.4064 9.29C24.4064 9.86333 24.603 10.15 24.9964 10.15C25.203 10.15 25.3497 10.09 25.4364 9.97C25.5297 9.84333 25.5797 9.61667 25.5864 9.29C25.5797 8.97 25.5297 8.74667 25.4364 8.62C25.3497 8.49333 25.203 8.43 24.9964 8.43C24.7897 8.43 24.6397 8.49333 24.5464 8.62C24.453 8.74667 24.4064 8.97 24.4064 9.29ZM25.4464 3.86L26.1764 4.52L20.4164 11.14L19.6864 10.45L25.4464 3.86Z" fill="#C28005"/>
<path d="M5.4652 7.55V7.5H5.4152V7.55H5.4652ZM7.9752 7.55H8.0252V7.5H7.9752V7.55ZM7.9752 8.7V8.75H8.0252V8.7H7.9752ZM5.4652 8.7H5.4152V8.75H5.4652V8.7ZM5.4652 7.6H7.9752V7.5H5.4652V7.6ZM7.9252 7.55V8.7H8.0252V7.55H7.9252ZM7.9752 8.65H5.4652V8.75H7.9752V8.65ZM5.5152 8.7V7.55H5.4152V8.7H5.5152ZM12.6887 6.74L12.6417 6.72284L12.6415 6.72364L12.6887 6.74ZM12.2187 7.76L12.1755 7.73491L12.1751 7.73557L12.2187 7.76ZM11.5887 8.73L11.5486 8.70014L11.5485 8.70028L11.5887 8.73ZM10.9187 9.58L10.95 9.62044L10.9569 9.6123L10.9187 9.58ZM10.3887 9.99L10.3581 9.95045L10.3387 9.96546V9.99H10.3887ZM10.3887 10.04H10.3387V10.1007L10.3983 10.0891L10.3887 10.04ZM11.1087 9.9V9.84906L11.0992 9.85092L11.1087 9.9ZM13.0287 9.9H13.0787V9.85H13.0287V9.9ZM13.0287 11V11.05H13.0787V11H13.0287ZM8.81871 11H8.76871V11.05H8.81871V11ZM8.81871 10.33L8.78264 10.2954L8.76871 10.3099V10.33H8.81871ZM9.35871 9.75L9.39571 9.78364L9.3962 9.78308L9.35871 9.75ZM9.95871 9.04L9.91997 9.00839L9.91987 9.00851L9.95871 9.04ZM10.5587 8.26L10.5182 8.23065L10.5587 8.26ZM11.0787 7.46L11.1221 7.48492L11.1223 7.48446L11.0787 7.46ZM11.4387 6.67L11.3918 6.65271L11.3914 6.65382L11.4387 6.67ZM11.3387 5.28L11.3006 5.31245L11.302 5.31391L11.3387 5.28ZM9.93871 5.15L9.95704 5.19653L9.95775 5.19623L9.93871 5.15ZM9.37871 5.49L9.33518 5.5146L9.36607 5.56925L9.41243 5.52692L9.37871 5.49ZM8.85871 4.57L8.827 4.53135L8.7945 4.55801L8.81518 4.5946L8.85871 4.57ZM9.73871 4.06L9.75679 4.10662L9.75728 4.10642L9.73871 4.06ZM11.6987 3.98L11.6829 4.02743L11.6987 3.98ZM12.3187 4.33L12.3518 4.29255L12.3187 4.33ZM12.7287 4.91L12.6828 4.9297L12.683 4.93018L12.7287 4.91ZM12.8287 5.71C12.8287 6.04366 12.7666 6.3812 12.6417 6.72284L12.7357 6.75716C12.8642 6.40547 12.9287 6.05633 12.9287 5.71H12.8287ZM12.6415 6.72364C12.5226 7.06713 12.3673 7.40422 12.1755 7.73491L12.262 7.78509C12.4568 7.44912 12.6149 7.1062 12.736 6.75636L12.6415 6.72364ZM12.1751 7.73557C11.9895 8.06698 11.7807 8.3885 11.5486 8.70014L11.6288 8.75986C11.8634 8.44484 12.0746 8.11969 12.2623 7.78443L12.1751 7.73557ZM11.5485 8.70028C11.3224 9.00617 11.0998 9.28863 10.8805 9.5477L10.9569 9.6123C11.1777 9.35137 11.4017 9.06716 11.6289 8.75972L11.5485 8.70028ZM10.8881 9.54045L10.3581 9.95045L10.4193 10.0295L10.9493 9.61955L10.8881 9.54045ZM10.3387 9.99V10.04H10.4387V9.99H10.3387ZM10.3983 10.0891L11.1183 9.94908L11.0992 9.85092L10.3792 9.99092L10.3983 10.0891ZM11.1087 9.95H13.0287V9.85H11.1087V9.95ZM12.9787 9.9V11H13.0787V9.9H12.9787ZM13.0287 10.95H8.81871V11.05H13.0287V10.95ZM8.86871 11V10.33H8.76871V11H8.86871ZM8.85478 10.3646C9.01517 10.1976 9.19549 10.0039 9.39571 9.78363L9.32171 9.71637C9.12194 9.93612 8.94226 10.1291 8.78264 10.2954L8.85478 10.3646ZM9.3962 9.78308C9.59669 9.55587 9.79713 9.31867 9.99755 9.07149L9.91987 9.00851C9.72029 9.25466 9.52074 9.4908 9.32122 9.71692L9.3962 9.78308ZM9.99745 9.07161C10.2047 8.81753 10.4053 8.55678 10.5992 8.28935L10.5182 8.23065C10.3255 8.49655 10.126 8.7558 9.91997 9.00839L9.99745 9.07161ZM10.5992 8.28935C10.7935 8.02136 10.9678 7.75322 11.1221 7.48492L11.0354 7.43508C10.883 7.70012 10.7106 7.96531 10.5182 8.23065L10.5992 8.28935ZM11.1223 7.48446C11.2769 7.20892 11.3982 6.94282 11.486 6.68618L11.3914 6.65382C11.3059 6.90385 11.1872 7.16441 11.0351 7.43554L11.1223 7.48446ZM11.4856 6.68728C11.5806 6.42945 11.6287 6.18357 11.6287 5.95H11.5287C11.5287 6.16976 11.4835 6.40388 11.3918 6.65271L11.4856 6.68728ZM11.6287 5.95C11.6287 5.66623 11.5453 5.43011 11.3755 5.24609L11.302 5.31391C11.4521 5.47656 11.5287 5.6871 11.5287 5.95H11.6287ZM11.3768 5.24758C11.2104 5.05222 10.9467 4.96 10.5987 4.96V5.06C10.9307 5.06 11.1604 5.14778 11.3006 5.31242L11.3768 5.24758ZM10.5987 4.96C10.3779 4.96 10.1515 5.00831 9.91967 5.10377L9.95775 5.19623C10.1793 5.10502 10.3928 5.06 10.5987 5.06V4.96ZM9.92039 5.10348C9.69549 5.19207 9.50341 5.30844 9.345 5.45308L9.41243 5.52692C9.56068 5.39156 9.74193 5.28126 9.95704 5.19652L9.92039 5.10348ZM9.42224 5.4654L8.90224 4.5454L8.81518 4.5946L9.33518 5.5146L9.42224 5.4654ZM8.89043 4.60865C9.14616 4.39882 9.43485 4.23145 9.75679 4.10662L9.72064 4.01338C9.38924 4.14188 9.09126 4.31451 8.827 4.53135L8.89043 4.60865ZM9.75728 4.10642C10.0835 3.97595 10.4669 3.91 10.9087 3.91V3.81C10.4572 3.81 10.0606 3.87738 9.72014 4.01358L9.75728 4.10642ZM10.9087 3.91C11.1907 3.91 11.4486 3.94934 11.6829 4.02743L11.7145 3.93257C11.4688 3.85066 11.2 3.81 10.9087 3.81V3.91ZM11.6829 4.02743C11.9171 4.1055 12.1177 4.21898 12.2856 4.36745L12.3518 4.29255C12.173 4.13436 11.9603 4.01449 11.7145 3.93257L11.6829 4.02743ZM12.2856 4.36745C12.4529 4.51543 12.5854 4.70249 12.6828 4.9297L12.7747 4.8903C12.672 4.65084 12.5312 4.45124 12.3518 4.29255L12.2856 4.36745ZM12.683 4.93018C12.7796 5.14917 12.8287 5.40868 12.8287 5.71H12.9287C12.9287 5.39799 12.8778 5.12416 12.7745 4.88982L12.683 4.93018ZM16.6125 9.67L16.6463 9.7069L16.6125 9.67ZM16.5525 7.91L16.5807 7.86871V7.86871L16.5525 7.91ZM15.3825 7.63V7.57996L15.3806 7.58004L15.3825 7.63ZM14.5925 7.66H14.5425V7.71193L14.5944 7.70996L14.5925 7.66ZM14.5925 4V3.95H14.5425V4H14.5925ZM18.0325 4H18.0825V3.95H18.0325V4ZM18.0325 5.22V5.27H18.0825V5.22H18.0325ZM15.7125 5.22V5.17H15.6625V5.22H15.7125ZM15.7125 6.57H15.6625V6.62512L15.7174 6.61976L15.7125 6.57ZM16.1225 6.53L16.1246 6.47956L16.1177 6.48024L16.1225 6.53ZM17.0025 6.71L16.9836 6.75626L16.984 6.75642L17.0025 6.71ZM17.6825 7.16L17.6466 7.19474L17.6472 7.19536L17.6825 7.16ZM18.1125 7.85L18.0656 7.86718L18.0657 7.86756L18.1125 7.85ZM17.5025 10.54L17.4705 10.5016L17.47 10.502L17.5025 10.54ZM16.6725 10.99L16.6875 11.0377L16.6725 10.99ZM14.7625 11.06L14.7721 11.0109L14.7712 11.0107L14.7625 11.06ZM14.0825 10.86L14.035 10.8446L14.0213 10.8867L14.0615 10.9054L14.0825 10.86ZM14.4325 9.78L14.4525 9.73415L14.402 9.71218L14.385 9.76459L14.4325 9.78ZM14.9325 9.94L14.9217 9.98885L14.9237 9.98922L14.9325 9.94ZM15.6025 10.04C16.0501 10.04 16.4007 9.93147 16.6463 9.7069L16.5788 9.6331C16.3578 9.83519 16.035 9.94 15.6025 9.94V10.04ZM16.6463 9.7069C16.8919 9.48238 17.0125 9.1746 17.0125 8.79H16.9125C16.9125 9.15207 16.7999 9.43096 16.5788 9.6331L16.6463 9.7069ZM17.0125 8.79C17.0125 8.37741 16.8707 8.06671 16.5807 7.86871L16.5243 7.95129C16.7811 8.12662 16.9125 8.40259 16.9125 8.79H17.0125ZM16.5807 7.86871C16.2958 7.67409 15.8943 7.58 15.3825 7.58V7.68C15.8841 7.68 16.2627 7.77257 16.5243 7.95129L16.5807 7.86871ZM15.3806 7.58004L14.5906 7.61004L14.5944 7.70996L15.3844 7.67996L15.3806 7.58004ZM14.6425 7.66V4H14.5425V7.66H14.6425ZM14.5925 4.05H18.0325V3.95H14.5925V4.05ZM17.9825 4V5.22H18.0825V4H17.9825ZM18.0325 5.17H15.7125V5.27H18.0325V5.17ZM15.6625 5.22V6.57H15.7625V5.22H15.6625ZM15.7174 6.61976L16.1274 6.57976L16.1177 6.48024L15.7077 6.52024L15.7174 6.61976ZM16.1205 6.57996C16.4423 6.59309 16.7297 6.65213 16.9836 6.75626L17.0215 6.66374C16.7553 6.55454 16.4561 6.49357 16.1246 6.48004L16.1205 6.57996ZM16.984 6.75642C17.2445 6.86065 17.4651 7.00682 17.6466 7.19473L17.7185 7.12527C17.5266 6.92651 17.2939 6.77268 17.0211 6.66358L16.984 6.75642ZM17.6472 7.19536C17.8282 7.37637 17.9678 7.59997 18.0656 7.86718L18.1595 7.83282C18.0573 7.55336 17.9102 7.31696 17.7179 7.12464L17.6472 7.19536ZM18.0657 7.86756C18.1633 8.12774 18.2125 8.42166 18.2125 8.75H18.3125C18.3125 8.41167 18.2618 8.10559 18.1594 7.83244L18.0657 7.86756ZM18.2125 8.75C18.2125 9.1377 18.1468 9.47722 18.0168 9.76969L18.1082 9.81031C18.2449 9.50278 18.3125 9.14897 18.3125 8.75H18.2125ZM18.0168 9.76969C17.8865 10.0631 17.7043 10.3067 17.4705 10.5016L17.5345 10.5784C17.7807 10.3733 17.9719 10.1169 18.1082 9.81031L18.0168 9.76969ZM17.47 10.502C17.2423 10.6972 16.9717 10.8441 16.6576 10.9423L16.6875 11.0377C17.0133 10.9359 17.2961 10.7828 17.5351 10.578L17.47 10.502ZM16.6576 10.9423C16.343 11.0406 15.9981 11.09 15.6225 11.09V11.19C16.0069 11.19 16.362 11.1394 16.6875 11.0377L16.6576 10.9423ZM15.6225 11.09C15.3255 11.09 15.0421 11.0636 14.7721 11.0109L14.753 11.1091C15.0297 11.1631 15.3196 11.19 15.6225 11.19V11.09ZM14.7712 11.0107C14.5075 10.9646 14.2853 10.899 14.1036 10.8146L14.0615 10.9054C14.2531 10.9943 14.4842 11.0621 14.7539 11.1093L14.7712 11.0107ZM14.1301 10.8754L14.4801 9.79541L14.385 9.76459L14.035 10.8446L14.1301 10.8754ZM14.4126 9.82585C14.5691 9.89392 14.7389 9.94819 14.9217 9.98881L14.9434 9.89119C14.7662 9.85181 14.6026 9.79942 14.4525 9.73415L14.4126 9.82585ZM14.9237 9.98922C15.1142 10.0232 15.3406 10.04 15.6025 10.04V9.94C15.3445 9.94 15.1243 9.92344 14.9413 9.89078L14.9237 9.98922ZM19.3164 4.81L19.27 4.79118L19.3164 4.81ZM19.6764 4.28L19.6427 4.24308L19.6764 4.28ZM20.2264 3.98L20.2399 4.02814L20.2409 4.02785L20.2264 3.98ZM22.1864 4.26L22.1536 4.29774L22.1544 4.29841L22.1864 4.26ZM22.5564 4.79L22.5098 4.80833L22.51 4.80882L22.5564 4.79ZM22.6964 5.58L22.7464 5.58106L22.7464 5.57894L22.6964 5.58ZM22.5564 6.38L22.6027 6.39882L22.6029 6.39833L22.5564 6.38ZM22.1864 6.9L22.1544 6.86158L22.1536 6.86227L22.1864 6.9ZM20.2264 7.19L20.2128 7.23813L20.2132 7.23824L20.2264 7.19ZM19.6764 6.9L19.7092 6.86227L19.6764 6.9ZM19.3164 6.38L19.2698 6.39833L19.27 6.39882L19.3164 6.38ZM21.3764 6.26L21.3361 6.23034L21.3358 6.23073L21.3764 6.26ZM21.5264 5.58L21.5764 5.58102L21.5764 5.57896L21.5264 5.58ZM21.3764 4.91L21.3351 4.93825L21.3361 4.93966L21.3764 4.91ZM23.3764 8.52L23.4227 8.53882L23.3764 8.52ZM23.7364 7.99L23.7027 7.95308L23.7364 7.99ZM24.2864 7.69L24.2999 7.73814L24.3009 7.73785L24.2864 7.69ZM26.2464 7.97L26.2136 8.00774L26.2144 8.00841L26.2464 7.97ZM26.6164 8.5L26.5698 8.51833L26.57 8.51882L26.6164 8.5ZM26.7564 9.29L26.8064 9.29106L26.8064 9.28894L26.7564 9.29ZM26.6164 10.09L26.6627 10.1088L26.6629 10.1083L26.6164 10.09ZM26.2464 10.61L26.2144 10.5716L26.2136 10.5723L26.2464 10.61ZM25.6964 10.9L25.6828 10.8519L25.6964 10.9ZM24.2864 10.9L24.2728 10.9481L24.2732 10.9482L24.2864 10.9ZM23.7364 10.61L23.7692 10.5723L23.7364 10.61ZM23.3764 10.09L23.3298 10.1083L23.33 10.1088L23.3764 10.09ZM25.4364 9.97L25.3961 9.94034L25.3958 9.94073L25.4364 9.97ZM25.5864 9.29L25.6364 9.29102L25.6364 9.28896L25.5864 9.29ZM25.4364 8.62L25.3951 8.64825L25.3961 8.64966L25.4364 8.62ZM24.5464 8.62L24.5061 8.59034L24.5464 8.62ZM25.4464 3.86L25.4799 3.82291L25.4422 3.78881L25.4087 3.82709L25.4464 3.86ZM26.1764 4.52L26.2141 4.55282L26.2463 4.51581L26.2099 4.48291L26.1764 4.52ZM20.4164 11.14L20.382 11.1763L20.4199 11.2121L20.4541 11.1728L20.4164 11.14ZM19.6864 10.45L19.6487 10.4171L19.6171 10.4533L19.652 10.4863L19.6864 10.45ZM19.2364 5.58C19.2364 5.28459 19.2791 5.03466 19.3627 4.82882L19.27 4.79118C19.1803 5.012 19.1364 5.27541 19.1364 5.58H19.2364ZM19.3627 4.82882C19.4469 4.62162 19.5628 4.45138 19.7101 4.31692L19.6427 4.24308C19.4832 4.38862 19.3592 4.57171 19.27 4.79118L19.3627 4.82882ZM19.7101 4.31692C19.8573 4.18253 20.0336 4.08617 20.2399 4.02813L20.2128 3.93187C19.9925 3.99383 19.8021 4.09747 19.6427 4.24308L19.7101 4.31692ZM20.2409 4.02785C20.4557 3.96275 20.6875 3.93 20.9364 3.93V3.83C20.6786 3.83 20.437 3.86392 20.2119 3.93215L20.2409 4.02785ZM20.9364 3.93C21.1858 3.93 21.4145 3.95953 21.6228 4.01813L21.6499 3.92187C21.4316 3.86047 21.1936 3.83 20.9364 3.83V3.93ZM21.6228 4.01813C21.8297 4.07632 22.0063 4.16967 22.1536 4.29773L22.2192 4.22227C22.0598 4.08366 21.8697 3.98368 21.6499 3.92187L21.6228 4.01813ZM22.1544 4.29841C22.3071 4.42568 22.4258 4.59506 22.5098 4.80833L22.6029 4.77167C22.5136 4.54494 22.3857 4.36098 22.2184 4.22159L22.1544 4.29841ZM22.51 4.80882C22.5938 5.01487 22.6398 5.27177 22.6464 5.58106L22.7464 5.57894C22.7396 5.26157 22.6923 4.99179 22.6027 4.77118L22.51 4.80882ZM22.6464 5.57894C22.6398 5.88817 22.5938 6.14864 22.5098 6.36167L22.6029 6.39833C22.6923 6.17136 22.7396 5.8985 22.7464 5.58106L22.6464 5.57894ZM22.51 6.36118C22.4261 6.56773 22.3074 6.73405 22.1544 6.86159L22.2184 6.93841C22.3853 6.79928 22.5133 6.61894 22.6027 6.39882L22.51 6.36118ZM22.1536 6.86227C22.0063 6.99033 21.8297 7.08368 21.6228 7.14187L21.6499 7.23813C21.8697 7.17632 22.0598 7.07634 22.2192 6.93773L22.1536 6.86227ZM21.6228 7.14187C21.4145 7.20047 21.1858 7.23 20.9364 7.23V7.33C21.1936 7.33 21.4316 7.29953 21.6499 7.23813L21.6228 7.14187ZM20.9364 7.23C20.687 7.23 20.4548 7.20047 20.2395 7.14176L20.2132 7.23824C20.4379 7.29953 20.6791 7.33 20.9364 7.33V7.23ZM20.2399 7.14187C20.033 7.08368 19.8564 6.99033 19.7092 6.86227L19.6436 6.93773C19.803 7.07634 19.993 7.17632 20.2128 7.23813L20.2399 7.14187ZM19.7092 6.86227C19.5625 6.73474 19.4468 6.56821 19.3627 6.36118L19.27 6.39882C19.3593 6.61845 19.4836 6.79859 19.6436 6.93773L19.7092 6.86227ZM19.3629 6.36167C19.2791 6.14907 19.2364 5.88899 19.2364 5.58H19.1364C19.1364 5.89768 19.1803 6.17093 19.2698 6.39833L19.3629 6.36167ZM20.2964 5.58C20.2964 5.87083 20.346 6.0978 20.4526 6.25329C20.5616 6.41216 20.7257 6.49 20.9364 6.49V6.39C20.7537 6.39 20.6228 6.3245 20.5351 6.19671C20.4451 6.06553 20.3964 5.8625 20.3964 5.58H20.2964ZM20.9364 6.49C21.1523 6.49 21.3174 6.42698 21.4169 6.28927L21.3358 6.23073C21.262 6.33302 21.1338 6.39 20.9364 6.39V6.49ZM21.4166 6.28966C21.5199 6.14955 21.5697 5.90894 21.5764 5.58102L21.4764 5.57898C21.4697 5.90439 21.4195 6.11712 21.3361 6.23034L21.4166 6.28966ZM21.5764 5.57896C21.5697 5.25743 21.5198 5.02034 21.4166 4.88034L21.3361 4.93966C21.4196 5.053 21.4697 5.26256 21.4764 5.58104L21.5764 5.57896ZM21.4176 4.88177C21.3186 4.737 21.1533 4.67 20.9364 4.67V4.77C21.1328 4.77 21.2608 4.82966 21.3351 4.93823L21.4176 4.88177ZM20.9364 4.67C20.7193 4.67 20.5517 4.73705 20.4461 4.88034L20.5266 4.93966C20.6077 4.82961 20.7401 4.77 20.9364 4.77V4.67ZM20.4461 4.88034C20.3426 5.02082 20.2964 5.25846 20.2964 5.58H20.3964C20.3964 5.26154 20.4435 5.05251 20.5266 4.93966L20.4461 4.88034ZM23.2964 9.29C23.2964 8.99459 23.3391 8.74467 23.4227 8.53882L23.33 8.50118C23.2403 8.722 23.1964 8.98541 23.1964 9.29H23.2964ZM23.4227 8.53882C23.5069 8.33162 23.6228 8.16138 23.7701 8.02692L23.7027 7.95308C23.5432 8.09862 23.4192 8.28171 23.33 8.50118L23.4227 8.53882ZM23.7701 8.02692C23.9173 7.89253 24.0936 7.79617 24.2999 7.73813L24.2728 7.64187C24.0525 7.70383 23.8621 7.80747 23.7027 7.95308L23.7701 8.02692ZM24.3009 7.73785C24.5157 7.67275 24.7475 7.64 24.9964 7.64V7.54C24.7386 7.54 24.497 7.57392 24.2719 7.64215L24.3009 7.73785ZM24.9964 7.64C25.2458 7.64 25.4745 7.66953 25.6828 7.72813L25.7099 7.63187C25.4916 7.57047 25.2536 7.54 24.9964 7.54V7.64ZM25.6828 7.72813C25.8897 7.78632 26.0663 7.87967 26.2136 8.00773L26.2792 7.93227C26.1198 7.79366 25.9297 7.69368 25.7099 7.63187L25.6828 7.72813ZM26.2144 8.00841C26.3671 8.13568 26.4858 8.30506 26.5698 8.51833L26.6629 8.48167C26.5736 8.25494 26.4457 8.07098 26.2784 7.93159L26.2144 8.00841ZM26.57 8.51882C26.6538 8.72487 26.6998 8.98177 26.7064 9.29106L26.8064 9.28894C26.7996 8.97157 26.7523 8.70179 26.6627 8.48118L26.57 8.51882ZM26.7064 9.28894C26.6998 9.59817 26.6538 9.85864 26.5698 10.0717L26.6629 10.1083C26.7523 9.88136 26.7996 9.6085 26.8064 9.29106L26.7064 9.28894ZM26.57 10.0712C26.4861 10.2777 26.3674 10.444 26.2144 10.5716L26.2784 10.6484C26.4453 10.5093 26.5733 10.3289 26.6627 10.1088L26.57 10.0712ZM26.2136 10.5723C26.0663 10.7003 25.8897 10.7937 25.6828 10.8519L25.7099 10.9481C25.9297 10.8863 26.1198 10.7863 26.2792 10.6477L26.2136 10.5723ZM25.6828 10.8519C25.4745 10.9105 25.2458 10.94 24.9964 10.94V11.04C25.2536 11.04 25.4916 11.0095 25.7099 10.9481L25.6828 10.8519ZM24.9964 10.94C24.747 10.94 24.5148 10.9105 24.2995 10.8518L24.2732 10.9482C24.4979 11.0095 24.7391 11.04 24.9964 11.04V10.94ZM24.2999 10.8519C24.093 10.7937 23.9164 10.7003 23.7692 10.5723L23.7036 10.6477C23.863 10.7863 24.053 10.8863 24.2728 10.9481L24.2999 10.8519ZM23.7692 10.5723C23.6225 10.4447 23.5068 10.2782 23.4227 10.0712L23.33 10.1088C23.4193 10.3285 23.5436 10.5086 23.7036 10.6477L23.7692 10.5723ZM23.4229 10.0717C23.3391 9.85907 23.2964 9.59899 23.2964 9.29H23.1964C23.1964 9.60768 23.2403 9.88093 23.3298 10.1083L23.4229 10.0717ZM24.3564 9.29C24.3564 9.58083 24.406 9.8078 24.5126 9.96329C24.6216 10.1222 24.7857 10.2 24.9964 10.2V10.1C24.8137 10.1 24.6828 10.0345 24.5951 9.90671C24.5051 9.77553 24.4564 9.5725 24.4564 9.29H24.3564ZM24.9964 10.2C25.2123 10.2 25.3774 10.137 25.4769 9.99927L25.3958 9.94073C25.322 10.043 25.1938 10.1 24.9964 10.1V10.2ZM25.4766 9.99966C25.5799 9.85955 25.6297 9.61894 25.6364 9.29102L25.5364 9.28898C25.5297 9.61439 25.4795 9.82712 25.3961 9.94034L25.4766 9.99966ZM25.6364 9.28896C25.6297 8.96743 25.5798 8.73034 25.4766 8.59034L25.3961 8.64966C25.4796 8.763 25.5297 8.97257 25.5364 9.29104L25.6364 9.28896ZM25.4776 8.59177C25.3786 8.447 25.2133 8.38 24.9964 8.38V8.48C25.1928 8.48 25.3208 8.53966 25.3951 8.64823L25.4776 8.59177ZM24.9964 8.38C24.7793 8.38 24.6117 8.44705 24.5061 8.59034L24.5866 8.64966C24.6677 8.53961 24.8001 8.48 24.9964 8.48V8.38ZM24.5061 8.59034C24.4026 8.73082 24.3564 8.96846 24.3564 9.29H24.4564C24.4564 8.97154 24.5035 8.76251 24.5866 8.64966L24.5061 8.59034ZM25.4128 3.89709L26.1428 4.55709L26.2099 4.48291L25.4799 3.82291L25.4128 3.89709ZM26.1386 4.48718L20.3786 11.1072L20.4541 11.1728L26.2141 4.55282L26.1386 4.48718ZM20.4507 11.1037L19.7207 10.4137L19.652 10.4863L20.382 11.1763L20.4507 11.1037ZM19.724 10.4829L25.484 3.8929L25.4087 3.82709L19.6487 10.4171L19.724 10.4829Z" fill="#C28005"/>
</svg>
