<svg width="26" height="26" viewBox="0 0 26 26" fill="none" xmlns="http://www.w3.org/2000/svg">
<path d="M14.4364 12.9998L25.7026 1.73359C26.0992 1.33694 26.0992 0.693846 25.7026 0.297245C25.3059 -0.0993564 24.6628 -0.0994072 24.2662 0.297245L13 11.5635L1.73384 0.297245C1.33718 -0.0994072 0.69409 -0.0994072 0.297489 0.297245C-0.0991123 0.693897 -0.099163 1.33699 0.297489 1.73359L11.5637 12.9998L0.297489 24.266C-0.099163 24.6626 -0.099163 25.3057 0.297489 25.7023C0.49579 25.9006 0.755739 25.9998 1.01569 25.9998C1.27564 25.9998 1.53554 25.9006 1.73389 25.7023L13 14.4362L24.2662 25.7023C24.4645 25.9006 24.7244 25.9998 24.9844 25.9998C25.2443 25.9998 25.5042 25.9006 25.7026 25.7023C26.0992 25.3057 26.0992 24.6626 25.7026 24.266L14.4364 12.9998Z" fill="#071A33"/>
</svg>
