<svg width="20" height="19" viewBox="0 0 20 19" fill="none" xmlns="http://www.w3.org/2000/svg">
<path d="M3.96973 1.5C3.96973 2.32843 3.29815 3 2.46973 3C1.6413 3 0.969727 2.32843 0.969727 1.5C0.969727 0.671573 1.6413 0 2.46973 0C3.29815 0 3.96973 0.671573 3.96973 1.5Z" fill="#071A33"/>
<path d="M19.9697 1.5C19.9697 2.32843 19.2982 3 18.4697 3C17.6413 3 16.9697 2.32843 16.9697 1.5C16.9697 0.671573 17.6413 0 18.4697 0C19.2982 0 19.9697 0.671573 19.9697 1.5Z" fill="#071A33"/>
<path d="M11.9697 1.5C11.9697 2.32843 11.2982 3 10.4697 3C9.6413 3 8.96973 2.32843 8.96973 1.5C8.96973 0.671573 9.6413 0 10.4697 0C11.2982 0 11.9697 0.671573 11.9697 1.5Z" fill="#071A33"/>
<path d="M3.96973 9.5C3.96973 10.3284 3.29815 11 2.46973 11C1.6413 11 0.969727 10.3284 0.969727 9.5C0.969727 8.67157 1.6413 8 2.46973 8C3.29815 8 3.96973 8.67157 3.96973 9.5Z" fill="#071A33"/>
<path d="M19.9697 9.5C19.9697 10.3284 19.2982 11 18.4697 11C17.6413 11 16.9697 10.3284 16.9697 9.5C16.9697 8.67157 17.6413 8 18.4697 8C19.2982 8 19.9697 8.67157 19.9697 9.5Z" fill="#071A33"/>
<path d="M11.9697 9.5C11.9697 10.3284 11.2982 11 10.4697 11C9.6413 11 8.96973 10.3284 8.96973 9.5C8.96973 8.67157 9.6413 8 10.4697 8C11.2982 8 11.9697 8.67157 11.9697 9.5Z" fill="#071A33"/>
<path d="M3.96973 17.5C3.96973 18.3284 3.29815 19 2.46973 19C1.6413 19 0.969727 18.3284 0.969727 17.5C0.969727 16.6716 1.6413 16 2.46973 16C3.29815 16 3.96973 16.6716 3.96973 17.5Z" fill="#071A33"/>
<path d="M19.9697 17.5C19.9697 18.3284 19.2982 19 18.4697 19C17.6413 19 16.9697 18.3284 16.9697 17.5C16.9697 16.6716 17.6413 16 18.4697 16C19.2982 16 19.9697 16.6716 19.9697 17.5Z" fill="#071A33"/>
<path d="M11.9697 17.5C11.9697 18.3284 11.2982 19 10.4697 19C9.6413 19 8.96973 18.3284 8.96973 17.5C8.96973 16.6716 9.6413 16 10.4697 16C11.2982 16 11.9697 16.6716 11.9697 17.5Z" fill="#071A33"/>
</svg>
