<svg width="28" height="24" viewBox="0 0 28 24" fill="none" xmlns="http://www.w3.org/2000/svg">
    <path fill-rule="evenodd" clip-rule="evenodd" d="M17.9774 0.0846715C17.7468 0.190487 11.3663 6.5055 11.1561 6.83606C11.0095 7.0664 10.9759 7.38174 11.0707 7.63717C11.1365 7.81444 17.6843 14.3785 17.9157 14.4993C18.2988 14.699 18.7989 14.5659 19.0412 14.1996L19.1727 14.0007L19.1865 12.3827L19.2002 10.7647L23.0353 10.7519C27.3925 10.7374 27.109 10.7644 27.3789 10.3384L27.5159 10.1221V7.30551C27.5159 4.93951 27.5048 4.46734 27.4466 4.35473C27.346 4.1598 27.0678 3.93209 26.8598 3.87427C26.7409 3.84125 25.4011 3.82397 22.9379 3.82383L19.1966 3.82354L19.1955 2.2801C19.1946 0.881903 19.1862 0.718657 19.1062 0.545216C18.9994 0.313532 18.848 0.167706 18.6118 0.0689259C18.3814 -0.0274617 18.2127 -0.02325 17.9774 0.0846715ZM22.2332 4.97215H26.4162V7.2933V9.61445H22.2327H18.0491V11.3732V13.132L15.1446 10.2247L12.2401 7.31733L15.1327 4.42163L18.0252 1.52599L18.0377 3.24905L18.0503 4.97215H22.2332ZM8.79745 9.5027C8.57593 9.61986 8.48079 9.71749 8.38535 9.92553C8.30589 10.0987 8.29743 10.2661 8.29647 11.6843L8.29542 13.2517H4.46853C0.741902 13.2517 0.636763 13.2542 0.455077 13.347C0.352472 13.3994 0.208079 13.5215 0.134257 13.6185L0 13.7946V16.7013V19.608L0.144632 19.7869C0.453164 20.1685 0.149318 20.1434 4.45772 20.1434H8.29542L8.29647 21.7108C8.29743 23.1279 8.30594 23.2967 8.3853 23.4715C8.59534 23.9345 9.13457 24.1322 9.57176 23.9066C9.76655 23.8061 16.281 17.314 16.378 17.1238C16.4803 16.923 16.4996 16.5883 16.4211 16.3776C16.3571 16.2062 9.75914 9.59143 9.55565 9.49481C9.36039 9.40205 8.98028 9.40603 8.79745 9.5027ZM12.3475 19.6049L9.44291 22.5123V20.7777V19.0432L5.2713 19.0309L1.09968 19.0187V16.6975V14.3764L5.2713 14.3642L9.44291 14.3519V12.6174V10.8828L12.3475 13.7902L15.252 16.6975L12.3475 19.6049Z" fill="#ffffff"/>
</svg>
